<?xml version="1.0" encoding="utf-8"?>
<!-- Generator: Adobe Illustrator 24.2.0, SVG Export Plug-In . SVG Version: 6.00 Build 0)  -->
<svg version="1.1" id="Layer_2_1_" xmlns="http://www.w3.org/2000/svg" xmlns:xlink="http://www.w3.org/1999/xlink" x="0px" y="0px"
	 viewBox="0 0 1601 500" style="enable-background:new 0 0 1601 500;" xml:space="preserve">
<style type="text/css">
	.st0{fill:#1565C0;stroke:#0C0D0E;stroke-miterlimit:10;}
	.st1{fill:#FFFFFF;}
	.st2{fill:none;stroke:#0C0D0E;stroke-miterlimit:10;}
	.st3{fill:#FFCF10;stroke:#0C0D0E;stroke-miterlimit:10;}
	.st4{fill:#0C0D0E;}
	.st5{fill:none;stroke:#000000;stroke-miterlimit:10;stroke-dasharray:6,6;}
	.st6{fill:#FFFFFF;stroke:#0C0D0E;stroke-miterlimit:10;}
	.st7{fill:none;}
	.st8{fill:none;stroke:#0C0D0E;stroke-width:1;stroke-miterlimit:10;}
	.st9{fill:none;stroke:#0C0D0E;stroke-miterlimit:10;stroke-dasharray:6,6;}
	.st10{fill:none;stroke:#0C0D0E;stroke-linecap:round;stroke-miterlimit:10;}
	.st11{clip-path:url(#SVGID_2_);}
	.st12{fill:#FFFFFF;stroke:#000000;stroke-miterlimit:10;}
</style>
<g>
	<polygon class="st0" points="334.5,430.5 334.5,461.5 303.5,461.5 303.5,430.5 300.5,430.5 300.5,426 318.5,417.1 336.5,426 
		336.5,430.5 	"/>
	<polygon class="st0" points="401.5,430.5 401.5,461.5 370.5,461.5 370.5,430.5 367.5,430.5 367.5,426 385.5,417.1 403.5,426 
		403.5,430.5 	"/>
	<rect x="334.5" y="439.5" class="st0" width="29" height="22"/>
	<rect x="401.5" y="439.5" class="st0" width="29" height="22"/>
	<rect x="312" y="450" class="st0" width="9" height="13"/>
	<ellipse class="st1" cx="316.9" cy="437.4" rx="3.3" ry="3.3"/>
	<rect x="337" y="445" class="st0" width="20" height="18"/>
	<rect x="410" y="416" class="st1" width="7" height="9"/>
	<rect x="379" y="450" class="st0" width="9" height="13"/>
	<ellipse class="st1" cx="383.6" cy="437.4" rx="3.3" ry="3.3"/>
	<rect x="404" y="445" class="st0" width="20" height="18"/>
	<rect x="314.5" y="448.5" class="st2" width="9" height="13"/>
	<circle class="st3" cx="317.8" cy="455.3" r="0.1"/>
	<ellipse class="st2" cx="318.9" cy="436.3" rx="3.3" ry="3.3"/>
	<polyline class="st0" points="303,430.5 305.5,430.5 305.5,428.3 319,421.6 332.5,428.3 332.5,430.5 335,430.5 	"/>
	<line class="st2" x1="310.5" y1="417" x2="310.5" y2="421"/>
	<line class="st2" x1="305.5" y1="424" x2="305.5" y2="417"/>
	<rect x="304.5" y="413.5" class="st0" width="7" height="4"/>
	<line class="st2" x1="314" y1="457.5" x2="303" y2="457.5"/>
	<line class="st2" x1="334" y1="457.5" x2="323" y2="457.5"/>
	<rect x="338.5" y="443.5" class="st2" width="20" height="18"/>
	<line class="st2" x1="359" y1="448.5" x2="339" y2="448.5"/>
	<line class="st2" x1="359" y1="452.5" x2="339" y2="452.5"/>
	<line class="st2" x1="359" y1="457.5" x2="339" y2="457.5"/>
	<line class="st2" x1="363.5" y1="440" x2="363.5" y2="435"/>
	<line class="st2" x1="363" y1="435.5" x2="334" y2="435.5"/>
	<rect x="412.5" y="415.5" class="st2" width="7" height="9"/>
	<line class="st2" x1="420" y1="424.5" x2="411" y2="424.5"/>
	<line class="st2" x1="419" y1="419.5" x2="412" y2="419.5"/>
	<line class="st2" x1="376.5" y1="417" x2="376.5" y2="422"/>
	<line class="st2" x1="372.5" y1="424" x2="372.5" y2="417"/>
	<rect x="370.5" y="413.5" class="st0" width="7" height="4"/>
	<line class="st2" x1="401.5" y1="425" x2="401.5" y2="411"/>
	<rect x="381.5" y="448.5" class="st2" width="9" height="13"/>
	<circle class="st3" cx="384.5" cy="455.3" r="0.1"/>
	<ellipse class="st2" cx="385.6" cy="436.3" rx="3.3" ry="3.3"/>
	<polyline class="st0" points="370,430.5 372.5,430.5 372.5,428.3 386,421.6 399.5,428.3 399.5,430.5 402,430.5 	"/>
	<polyline class="st2" points="401,410.5 399.5,410.5 399.5,406 416,397.1 432.5,406 432.5,410.5 430.5,410.5 430.5,440 	"/>
	<polyline class="st0" points="401,410.5 403.5,410.5 403.5,408.3 415.5,401.6 427.5,408.3 427.5,410.5 430,410.5 	"/>
	<line class="st2" x1="381" y1="457.5" x2="370" y2="457.5"/>
	<line class="st2" x1="401" y1="457.5" x2="390" y2="457.5"/>
	<line class="st2" x1="430" y1="435.5" x2="401" y2="435.5"/>
	<rect x="405.5" y="443.5" class="st2" width="20" height="18"/>
	<line class="st2" x1="426" y1="448.5" x2="406" y2="448.5"/>
	<line class="st2" x1="426" y1="452.5" x2="406" y2="452.5"/>
	<line class="st2" x1="426" y1="457.5" x2="406" y2="457.5"/>
</g>
<circle class="st2" cx="284.5" cy="151.5" r="2"/>
<path class="st2" d="M318,176.6l-2.5,4h5L318,176.6z"/>
<circle class="st2" cx="270.5" cy="177.5" r="2"/>
<g>
	<line class="st2" x1="1290" y1="54.5" x2="1299" y2="54.5"/>
	<line class="st2" x1="1294.5" y1="59" x2="1294.5" y2="50"/>
</g>
<line class="st2" x1="458" y1="342.5" x2="170" y2="342.5"/>
<path class="st1" d="M110,55h28c0,0,2.2,0.1,3.1,0.8c0.6,0.6,1.4,1,2.2,1.2h23.3c2.6,0,4.4,4.8,4.4,4.8v5.9c0,0-1.9,4.8-4.4,4.3h-25
	c-0.6-0.1-1.2-0.4-1.7-0.7c-0.8-0.4-1.6-0.8-2.3-1.3H110"/>
<path class="st2" d="M114,55.5h25c1.1,0.1,2.1,0.5,3,1.1c0.6,0.6,1.4,0.9,2.2,0.9h22.7c4.5,0,4.7,4.9,4.7,4.9v5.7
	c0,2.4-2,4.4-4.4,4.4c-0.1,0-0.2,0-0.3,0h-24.4c-0.6,0.1-1.2-0.2-1.5-0.6l-0.1-0.2c-0.5-0.8-2.3-1.1-2.3-1.1H114"/>
<line class="st2" x1="140.5" y1="56" x2="140.5" y2="60.5"/>
<line class="st2" x1="140.5" y1="69" x2="140.5" y2="72"/>
<g>
	<path d="M120.3,63.5l-2.7,1.2l2.7,1.2c0.1,0,0.1,0.1,0.1,0.1v0.4c0,0,0,0.1,0,0.1c0,0-0.1,0-0.1,0l-3.2-1.4c-0.1,0-0.1-0.1-0.1-0.1
		l0-0.5c0-0.1,0-0.1,0.1-0.1l3.2-1.4c0,0,0,0,0,0c0,0,0.1,0,0.1,0c0,0,0,0,0,0.1v0.4C120.4,63.5,120.3,63.5,120.3,63.5z"/>
	<path d="M121.2,67.6C121.1,67.6,121.1,67.6,121.2,67.6l2.7-6.9c0-0.1,0.1-0.1,0.1-0.1h0.4c0,0,0,0,0.1,0c0,0,0,0,0,0.1l-2.7,6.8
		c0,0.1-0.1,0.1-0.1,0.1L121.2,67.6C121.2,67.7,121.2,67.7,121.2,67.6z"/>
	<path d="M126.6,67.2C126.6,67.1,126.6,67.1,126.6,67.2l-1.5-4.6c0,0,0,0,0-0.1c0-0.1,0.1-0.1,0.1-0.1c0,0,0,0,0,0h0.4
		c0,0,0.1,0,0.1,0c0,0,0.1,0,0.1,0.1l1.2,3.9l1.1-3.9c0-0.1,0.1-0.1,0.2-0.1h0.4c0.1,0,0.1,0,0.2,0.1l1.1,3.9l1.2-3.9
		c0,0,0-0.1,0.1-0.1c0,0,0.1,0,0.1,0h0.4c0,0,0.1,0,0.1,0.1c0,0,0,0.1,0,0.1l-1.5,4.6c0,0,0,0.1-0.1,0.1c0,0-0.1,0-0.1,0h-0.5
		c0,0-0.1,0-0.1,0c0,0-0.1,0-0.1-0.1l-1.1-3.7l-1.1,3.7c0,0,0,0.1-0.1,0.1c0,0-0.1,0-0.1,0L126.6,67.2
		C126.7,67.2,126.6,67.2,126.6,67.2z"/>
	<path d="M133.5,66.9c-0.3-0.2-0.5-0.4-0.6-0.7c-0.2-0.3-0.2-0.6-0.2-0.9v-1.2c0-0.3,0.1-0.7,0.2-0.9c0.2-0.3,0.4-0.5,0.6-0.7
		c0.6-0.3,1.2-0.3,1.8,0c0.3,0.2,0.5,0.4,0.6,0.7c0.2,0.3,0.2,0.6,0.2,0.9v0.6c0,0.1,0,0.2-0.1,0.2c-0.1,0.1-0.1,0.1-0.2,0.1h-2.6
		v0.4c0,0.2,0.1,0.4,0.2,0.6c0.1,0.2,0.2,0.3,0.4,0.4c0.2,0.1,0.4,0.2,0.6,0.2h1.2c0,0,0.1,0,0.1,0c0,0,0,0.1,0,0.1v0.4
		c0,0,0,0.1,0,0.1c0,0-0.1,0-0.1,0h-1.2C134.1,67.2,133.8,67.1,133.5,66.9z M135.6,64.4V64c0-0.2-0.1-0.4-0.2-0.6
		c-0.1-0.2-0.2-0.3-0.4-0.4c-0.4-0.2-0.8-0.2-1.2,0c-0.2,0.1-0.3,0.3-0.4,0.4c-0.1,0.2-0.2,0.4-0.2,0.6v0.3L135.6,64.4z"/>
	<path d="M137.9,67.1c-0.1-0.1-0.1-0.1-0.1-0.2v-5.6h-0.8c0,0-0.1,0-0.1,0c0,0,0-0.1,0-0.1v-0.4c0,0,0-0.1,0-0.1c0,0,0.1,0,0.1,0
		h1.1c0.1,0,0.2,0,0.2,0.1c0.1,0.1,0.1,0.1,0.1,0.2v5.6h0.9c0,0,0.1,0,0.1,0c0,0,0,0.1,0,0.1v0.4c0,0,0,0.1,0,0.1c0,0-0.1,0-0.1,0
		h-1.2C138.1,67.2,138,67.2,137.9,67.1z"/>
	<path d="M145.7,68.6c-0.3-0.2-0.5-0.4-0.6-0.7c-0.2-0.3-0.2-0.6-0.2-0.9v-1.3c0-0.3,0.1-0.7,0.2-0.9c0.2-0.3,0.4-0.5,0.6-0.7
		c0.6-0.3,1.2-0.3,1.8,0c0.3,0.2,0.5,0.4,0.6,0.7c0.2,0.3,0.2,0.6,0.2,0.9V67c0,0.3-0.1,0.7-0.2,0.9c-0.2,0.3-0.4,0.5-0.6,0.7
		C147,69,146.3,69,145.7,68.6L145.7,68.6z M147.2,68.1c0.2-0.1,0.3-0.3,0.4-0.4c0.1-0.2,0.2-0.4,0.2-0.6v-1.4c0-0.2-0.1-0.4-0.2-0.6
		c-0.1-0.2-0.2-0.3-0.4-0.4c-0.4-0.2-0.8-0.2-1.2,0c-0.2,0.1-0.3,0.3-0.4,0.4c-0.1,0.2-0.2,0.4-0.2,0.6V67c0,0.2,0.1,0.4,0.2,0.6
		c0.1,0.2,0.2,0.3,0.4,0.4C146.4,68.3,146.9,68.3,147.2,68.1z"/>
	<path d="M149.9,68.7C149.9,68.7,149.9,68.7,149.9,68.7l0-4.7c0,0,0-0.1,0-0.1c0,0,0.1,0,0.1,0h0.4c0,0,0.1,0,0.1,0c0,0,0,0.1,0,0.1
		v0.5c0.1-0.2,0.3-0.4,0.5-0.5c0.2-0.1,0.5-0.2,0.7-0.2c0.3,0,0.6,0.1,0.9,0.3c0.3,0.2,0.4,0.4,0.5,0.7c0.1-0.3,0.3-0.5,0.5-0.7
		c0.2-0.2,0.5-0.2,0.8-0.2c0.4,0,0.8,0.1,1.1,0.4c0.3,0.3,0.5,0.7,0.4,1.2v3.2c0,0,0,0.1,0,0.1c0,0-0.1,0-0.1,0h-0.4
		c0,0-0.1,0-0.1,0c0,0,0-0.1,0-0.1v-3.1c0-0.3-0.1-0.6-0.3-0.8c-0.2-0.2-0.5-0.3-0.7-0.3c-0.3,0-0.6,0.1-0.8,0.4
		c-0.2,0.3-0.3,0.7-0.3,1v2.8c0,0,0,0.1,0,0.1c0,0-0.1,0-0.1,0h-0.4c0,0-0.1,0-0.1,0c0,0,0-0.1,0-0.1v-3.1c0-0.3-0.1-0.6-0.3-0.8
		c-0.2-0.2-0.5-0.3-0.7-0.3c-0.3,0-0.6,0.1-0.8,0.4c-0.2,0.3-0.3,0.7-0.3,1v2.8c0,0,0,0.1,0,0.1c0,0-0.1,0-0.1,0L149.9,68.7
		C150,68.8,150,68.7,149.9,68.7z"/>
	<path d="M158.4,68.5c-0.3-0.2-0.5-0.4-0.6-0.7c-0.2-0.3-0.2-0.6-0.2-0.9v-1.2c0-0.3,0.1-0.7,0.2-0.9c0.2-0.3,0.4-0.5,0.6-0.7
		c0.6-0.3,1.2-0.3,1.8,0c0.3,0.2,0.5,0.4,0.6,0.7c0.2,0.3,0.2,0.6,0.2,0.9v0.6c0,0.1,0,0.2-0.1,0.2c-0.1,0.1-0.1,0.1-0.2,0.1h-2.6
		v0.4c0,0.2,0.1,0.4,0.2,0.6c0.1,0.2,0.2,0.3,0.4,0.4c0.2,0.1,0.4,0.2,0.6,0.2h1.2c0,0,0.1,0,0.1,0c0,0,0,0.1,0,0.1v0.4
		c0,0,0,0.1,0,0.1c0,0-0.1,0-0.1,0h-1.2C159,68.8,158.7,68.7,158.4,68.5z M160.5,65.9v-0.3c0-0.2-0.1-0.4-0.2-0.6
		c-0.1-0.2-0.2-0.3-0.4-0.4c-0.4-0.2-0.8-0.2-1.2,0c-0.2,0.1-0.3,0.3-0.4,0.4c-0.1,0.2-0.2,0.4-0.2,0.6v0.3H160.5z"/>
	<path d="M165.8,66.5c0,0.1,0,0.1-0.1,0.1l-3.2,1.4c0,0,0,0,0,0c0,0-0.1,0-0.1,0c0,0,0,0,0-0.1v-0.4c0-0.1,0-0.1,0.1-0.1l2.7-1.2
		l-2.7-1.2c-0.1,0-0.1-0.1-0.1-0.1v-0.4c0-0.1,0-0.1,0.1-0.1c0,0,0,0,0.1,0l3.2,1.4c0.1,0,0.1,0.1,0.1,0.1L165.8,66.5z"/>
	<path d="M141.3,67.3c-0.3-0.2-0.6-0.4-0.8-0.7c-0.2-0.3-0.3-0.7-0.3-1v-1.5c0-0.4,0.1-0.7,0.3-1c0.2-0.3,0.5-0.6,0.8-0.7
		c0.6-0.3,1.3-0.4,2-0.1c0.3,0.1,0.5,0.2,0.7,0.4c0,0,0.1,0.1,0.1,0.1c0,0.1,0,0.1-0.1,0.1c-0.1,0.1-0.1,0.1-0.2,0.2
		c0,0-0.1,0.1-0.2,0.1c-0.1,0-0.1,0-0.2-0.1c-0.3-0.2-0.6-0.4-1-0.3c-0.3,0-0.5,0.1-0.7,0.2c-0.2,0.1-0.4,0.3-0.5,0.5
		c-0.1,0.2-0.2,0.4-0.2,0.7v1.5c0,0.2,0.1,0.5,0.2,0.7c0.1,0.2,0.3,0.4,0.5,0.5c0.2,0.1,0.5,0.2,0.7,0.2c0.4,0,0.7-0.1,1-0.3
		c0,0,0.1-0.1,0.2-0.1c0.1,0,0.1,0,0.2,0.1c0.1,0.1,0.2,0.1,0.2,0.2c0,0,0.1,0.1,0.1,0.1c0,0.1,0,0.1-0.1,0.1
		c-0.2,0.2-0.4,0.3-0.7,0.4C142.6,67.6,141.9,67.6,141.3,67.3L141.3,67.3z"/>
</g>
<path class="st2" d="M110,70.5h4c0.3,0,0.5,0.2,0.5,0.5v0c0,0.3-0.2,0.5-0.5,0.5h-4c-0.3,0-0.5-0.2-0.5-0.5v0
	C109.5,70.7,109.7,70.5,110,70.5z"/>
<path class="st2" d="M110,54.5h4c0.3,0,0.5,0.2,0.5,0.5v0c0,0.3-0.2,0.5-0.5,0.5h-4c-0.3,0-0.5-0.2-0.5-0.5v0
	C109.5,54.7,109.7,54.5,110,54.5z"/>
<g>
	<path class="st1" d="M220.3,191.5c0.6-3.5-1.5-6.9-4.9-7.9c1.4-3.5-0.3-7.6-3.9-9c-0.2-0.1-0.3-0.1-0.5-0.2
		c-1.6-0.5-3.4-0.3-4.9,0.5c-1.6-3.6-5.3-5.8-9.2-5.3c-5,0.7-8.5,5.4-7.8,10.4c0.2,1.2,0.6,2.3,1.2,3.4c-3.7,0.6-6.3,4.1-5.7,7.9
		c0.5,3.3,3.4,5.8,6.8,5.8h21.9C216.9,197.2,219.7,194.8,220.3,191.5z"/>
	<path class="st2" d="M224.6,192.9c0.7-3.6-1.5-7.1-5-8.1c1.4-3.6-0.3-7.8-4-9.2c-0.1,0-0.1,0-0.2-0.1c-1.8-0.7-3.7-0.5-5.4,0.4
		c-1.6-3.7-5.4-5.9-9.4-5.4c-5.2,0.8-8.7,5.5-8,10.7c0.2,1.2,0.6,2.4,1.2,3.5c-3.8,0.6-6.5,4.2-5.8,8.1c0.6,3.4,3.5,5.9,7,5.9h22.5
		C221,198.7,223.9,196.2,224.6,192.9z"/>
</g>
<g>
	<path class="st1" d="M1537.2,242c-4.4-0.1-7.9-3.7-7.9-8.1c0.1-3.5,2.4-6.6,5.8-7.6c-0.4-0.9-0.6-2-0.6-3c0-4.4,3.5-8,7.9-8
		c1.3,0,2.5,0.3,3.6,0.9c2.3-5.3,8.5-7.7,13.8-5.4c3.9,1.7,6.3,5.6,6.2,9.8c0,1.9-0.5,3.8-1.5,5.4c4.4,0.7,7.4,4.8,6.7,9.1
		c-0.6,3.9-3.9,6.7-7.8,6.8H1537.2z"/>
	<path class="st2" d="M1532.4,244.5c-4.5-0.1-8.2-3.8-8.1-8.3c0.1-3.6,2.5-6.8,6-7.8c-0.4-1-0.6-2-0.6-3.1c0-4.5,3.6-8.2,8.1-8.2
		c1.3,0,2.6,0.3,3.7,0.9c1.7-3.9,5.5-6.4,9.8-6.4c6,0.1,10.9,5,10.8,11.1c0,1.9-0.6,3.8-1.6,5.5c4.5,0.7,7.5,4.9,6.8,9.4
		c-0.6,4-4,6.9-8,6.9H1532.4z"/>
</g>
<line class="st2" x1="98" y1="439.5" x2="291" y2="439.5"/>
<g>
	<path class="st2" d="M1174.5,81"/>
	<path class="st2" d="M1171.5,81"/>
</g>
<g>
	<path class="st1" d="M1257.1,73.3c0.5-3.7-1.8-7.2-5.4-8.3c0.6-1.6,0.7-3.4,0.2-5.1c-0.7-2.3-2.4-4.1-4.6-4.9
		c-1.9-0.7-4-0.5-5.8,0.4c-1.7-4-5.8-6.4-10.1-5.9c-4.2,0.6-7.5,3.7-8.4,7.8c-0.6,2.5-0.2,5.2,1.2,7.5c-4.1,0.7-6.9,4.6-6.2,8.8
		c0.6,3.7,3.8,6.4,7.5,6.3h24.1C1253.3,80,1256.6,77.1,1257.1,73.3z"/>
	<path class="st2" d="M1258.7,73.6c0.5-3.8-1.9-7.4-5.5-8.5c0.7-1.7,0.7-3.5,0.2-5.3c-0.7-2.3-2.5-4.2-4.7-5
		c-1.9-0.7-4.1-0.6-5.9,0.5c-1.7-4.1-6-6.6-10.4-6c-4.5,0.7-8.1,4.2-8.7,8.8c-0.4,2.4,0.1,4.8,1.3,6.9c-4.3,0.7-7.1,4.8-6.4,9
		c0.6,3.8,3.9,6.5,7.7,6.5h24.7C1254.9,80.5,1258.2,77.6,1258.7,73.6z"/>
</g>
<path class="st2" d="M1228,80.5h-76.7c0,0-9.2-0.8-9.2,5.9s7.3,4.9,7.3,4.9"/>
<g>
	<line class="st2" x1="55" y1="281.5" x2="64" y2="281.5"/>
	<line class="st2" x1="59.5" y1="286" x2="59.5" y2="277"/>
</g>
<circle class="st2" cx="162.5" cy="227.5" r="2"/>
<g>
	<path class="st2" d="M1556.5,325v-35"/>
	<ellipse class="st2" cx="1556.5" cy="295.5" rx="15" ry="14.5"/>
	<line class="st2" x1="1556.8" y1="299.4" x2="1548.6" y2="291.5"/>
	<line class="st2" x1="1556.8" y1="304.7" x2="1565" y2="296.8"/>
</g>
<circle class="st2" cx="1548.5" cy="314.5" r="1"/>
<circle class="st2" cx="1543.9" cy="189.8" r="1.9"/>
<circle class="st2" cx="1516.5" cy="70.5" r="2"/>
<circle class="st2" cx="1343.5" cy="164.5" r="2"/>
<circle class="st2" cx="1166.5" cy="120.5" r="2"/>
<path class="st2" d="M1343.3,40.5l-2.5,4h5L1343.3,40.5z"/>
<path class="st2" d="M1330,98.8l-2.5,3.7h5L1330,98.8z"/>
<path class="st4" d="M1440.6,99.3c0.2,0,0.3,0.2,0.3,0.4c0,0.1,0,0.2,0,0.2l-0.4,0.8c-0.1,0.2-0.3,0.3-0.4,0.3c-0.1,0-0.2,0-0.2-0.1
	l-3.1-1.1l0.2,2.7v0.1c0,0.1,0,0.2-0.1,0.3c-0.1,0.1-0.2,0.1-0.3,0.1h-1.1c-0.1,0-0.3,0-0.3-0.1c-0.1-0.1-0.1-0.2-0.1-0.3l0.2-2.7
	l-3,1.1c-0.1,0-0.2,0.1-0.3,0.1c-0.2,0-0.3-0.1-0.4-0.2l-0.4-0.8c0-0.1-0.1-0.2-0.1-0.3c0-0.2,0.1-0.3,0.3-0.4l4.6-1.3L1440.6,99.3z
	 M1436.9,93.1c0.1,0.1,0.1,0.2,0.1,0.3l-0.2,2.7l3.1-1.1c0.1,0,0.2-0.1,0.3-0.1c0.2,0,0.3,0.1,0.4,0.3l0.4,0.8c0,0.1,0,0.2,0,0.2
	c0,0.2-0.1,0.4-0.3,0.4l-4.7,1.2l-4.6-1.3c-0.2,0-0.3-0.2-0.3-0.4c0-0.1,0-0.2,0.1-0.2l0.4-0.8c0.1-0.1,0.2-0.2,0.4-0.2
	c0.1,0,0.2,0,0.3,0.1l3,1.1l-0.2-2.7v-0.1c0-0.1,0-0.2,0.1-0.3c0.1-0.1,0.2-0.1,0.3-0.1h1.1C1436.7,93,1436.8,93,1436.9,93.1
	L1436.9,93.1z"/>
<g>
	<path class="st5" d="M405.1,72.4c54.8-20.5,115.7-28.1,196.5,11.2c30.7,14.9,67.7,0.2,63.8-21.4c-2.9-16.1-24.3-13.6-21.3,3.4
		c1,5.6,4.8,10.5,9.6,13.6c84.6,54.3,134.8-36.5,199.4-3.5c14.1,7.2,4.7,29.7-10,25C816.9,92,911.3,27,994,27s137.5,40.7,140.1,44.3
		"/>
	<path class="st5" d="M755.8,105.9c-11.4,6.3-37.4,14.8-58.8,1.5"/>
	<path class="st5" d="M873.3,74.8c2.6,7.7,7.8,35.3-19.8,42.2"/>
</g>
<line class="st2" x1="1561.3" y1="329.6" x2="1441.5" y2="329.6"/>
<g>
	<rect x="85" y="142" class="st1" width="18" height="200"/>
	<rect x="115" y="142" class="st1" width="18" height="200"/>
	<rect x="48.5" y="424.5" class="st2" width="121" height="15"/>
	<rect x="89.5" y="138.5" class="st2" width="40" height="286"/>
	<polyline class="st2" points="65.5,424 65.5,384.5 74,384.5 	"/>
	<rect x="73.5" y="357.5" class="st2" width="27" height="67"/>
	<rect x="79.5" y="199.5" class="st0" width="22" height="158"/>
	<rect x="117.5" y="199.5" class="st0" width="22" height="158"/>
	<polyline class="st2" points="146,384.5 153.5,384.5 153.5,424 	"/>
	<rect x="118.5" y="357.5" class="st2" width="27" height="67"/>
	<rect x="100.5" y="338.5" class="st0" width="18" height="86"/>
	<rect x="85.5" y="166.5" class="st0" width="16" height="33"/>
	<rect x="117.5" y="166.5" class="st0" width="16" height="33"/>
	<rect x="93.5" y="134.5" class="st0" width="32" height="5"/>
	<rect x="106" y="101" class="st1" width="4" height="26"/>
	<rect x="96.5" y="129.5" class="st0" width="25" height="5"/>
	<rect x="100.5" y="124.5" class="st0" width="18" height="5"/>
	<rect x="107.5" y="98.5" class="st2" width="4" height="26"/>
	<line class="st2" x1="109.5" y1="99" x2="109.5" y2="44"/>
	<line class="st2" x1="125.5" y1="200" x2="125.5" y2="358"/>
	<line class="st2" x1="106.5" y1="139" x2="106.5" y2="340"/>
	<line class="st2" x1="112.5" y1="139" x2="112.5" y2="340"/>
	<line class="st2" x1="106.5" y1="347" x2="106.5" y2="424"/>
	<line class="st2" x1="112.5" y1="347" x2="112.5" y2="424"/>
	<line class="st2" x1="133.5" y1="200" x2="133.5" y2="358"/>
	<line class="st2" x1="85.5" y1="200" x2="85.5" y2="358"/>
	<line class="st2" x1="93.5" y1="200" x2="93.5" y2="358"/>
	<g>
		<line class="st2" x1="91.5" y1="167" x2="91.5" y2="200"/>
		<line class="st2" x1="97.5" y1="167" x2="97.5" y2="200"/>
	</g>
	<g>
		<line class="st2" x1="120.5" y1="167" x2="120.5" y2="200"/>
		<line class="st2" x1="126.5" y1="167" x2="126.5" y2="200"/>
	</g>
	<path class="st4" d="M106,346h-2v-4c-0.6,0-0.6-1.3,0.6-1.3s1.2,1.3,1.4,1.3V346z"/>
	<path class="st4" d="M110,346h-2v-4c-0.3,0-0.3-1.3,1-1.3s1.2,1.3,1,1.3V346z"/>
	<path class="st4" d="M114,346h-2v-4c0.1,0,0.1-1.3,1.3-1.3s1.2,1.3,0.7,1.3V346z"/>
</g>
<g>
	<circle class="st0" cx="158" cy="307" r="67.5"/>
	<g>
		<line class="st0" x1="116" y1="267.5" x2="188" y2="267.5"/>
		<polyline class="st0" points="121.5,298 121.5,267.5 184.5,267.5 184.5,309.5 177,309.5 		"/>
		<g>
			<circle class="st0" cx="200.7" cy="309.9" r="4"/>
			<rect x="155" y="291" class="st0" width="26" height="3"/>
			<line class="st0" x1="196.4" y1="305.6" x2="179.3" y2="291.1"/>
			<line class="st0" x1="192.5" y1="328" x2="197.8" y2="312.2"/>
			<circle class="st0" cx="199.1" cy="308.2" r="4"/>
			<polyline class="st0" points="189,327.5 202.5,327.5 202.5,333 			"/>
			<polyline class="st0" points="182.5,333 182.5,327.5 187,327.5 			"/>
			<rect x="153.5" y="289.5" class="st0" width="26" height="3"/>
		</g>
		<line class="st0" x1="126.5" y1="339" x2="126.5" y2="350"/>
		<line class="st0" x1="131.5" y1="339" x2="131.5" y2="350"/>
		<line class="st0" x1="192.5" y1="339" x2="192.5" y2="350"/>
		<line class="st0" x1="197.5" y1="339" x2="197.5" y2="350"/>
		<rect x="168" y="322" class="st0" width="7" height="12"/>
		<rect x="173.5" y="322.5" class="st0" width="4" height="7"/>
		<rect x="166.5" y="320.5" class="st0" width="7" height="12"/>
		<line class="st0" x1="167.5" y1="318" x2="167.5" y2="316"/>
		<line class="st0" x1="171.5" y1="318" x2="171.5" y2="316"/>
		<line class="st0" x1="167.5" y1="315" x2="167.5" y2="313"/>
		<line class="st0" x1="171.5" y1="315" x2="171.5" y2="313"/>
		<line class="st0" x1="167.5" y1="311" x2="167.5" y2="310"/>
		<line class="st0" x1="171.5" y1="311" x2="171.5" y2="310"/>
		<polyline class="st0" points="125,333.5 115.5,333.5 115.5,338.5 209.5,338.5 209.5,333.5 176,333.5 		"/>
		<line class="st0" x1="151.5" y1="268" x2="151.5" y2="281"/>
		<rect x="131" y="309" class="st0" width="31" height="21"/>
		<polygon class="st0" points="159.2,333.5 128.8,333.5 126.5,330.8 126.5,329.5 140.8,329.5 142,331.5 147.9,331.5 149,329.5 
			161.5,329.5 161.5,330.8 		"/>
		<g>
			<line class="st0" x1="151" y1="326.5" x2="160" y2="326.5"/>
			<line class="st0" x1="129" y1="326.5" x2="138" y2="326.5"/>
			<line class="st0" x1="144" y1="326.5" x2="145" y2="326.5"/>
			<line class="st0" x1="142" y1="326.5" x2="143" y2="326.5"/>
			<line class="st0" x1="139" y1="326.5" x2="140" y2="326.5"/>
			<line class="st0" x1="146" y1="326.5" x2="147" y2="326.5"/>
			<line class="st0" x1="148" y1="326.5" x2="149" y2="326.5"/>
		</g>
		<polyline class="st0" points="128.5,329 128.5,307.5 159.5,307.5 159.5,329 		"/>
	</g>
</g>
<g>
	<path class="st0" d="M253,107.8l-15.2-20.5c-0.8-1.1-0.6-2.7,0.5-3.5c0.2-0.2,0.5-0.3,0.8-0.4c3.3-1,8.1-2.1,10.2-1.7
		c3.1,0.7,6.5,3.3,10.1,6c5.5,4.1,11.7,8.8,17.1,7.1c9.1-2.7,3.7-1.2,14.7-4.6c26.5-8.2,38.7-12.2,54-15.2c7.1-1.1,14.2-1.4,21.4-1
		c10,0.7,15.5,2.7,16.6,6.2c1.4,4.6-8.3,11.9-23.3,16.5l-26,7.7l-13.4,3.9l-37.4,11.1l-34.7,0l-3.2-3.9"/>
	<path class="st1" d="M261.5,106.4l-19.3,5.9c-1.4,0.4-2.2,1.9-1.8,3.3l0,0c0.4,1.4,1.9,2.2,3.3,1.8l19.3-5.9
		c1.4-0.4,2.2-1.9,1.8-3.3l0,0C264.4,106.8,262.9,106,261.5,106.4z"/>
	<path class="st1" d="M329.4,98.5l-28.7,8.5c-0.5,0.1-0.8,0.7-0.6,1.1l1,3.4c0.1,0.5,0.7,0.8,1.1,0.6l28.7-8.5
		c0.5-0.1,0.8-0.7,0.6-1.1l-1-3.4C330.4,98.6,329.9,98.3,329.4,98.5z"/>
	<path class="st6" d="M328.6,100.5l3.9-1.2l2.6,8.8l-8.8,2.6c-2.4,0.7-5-0.7-5.7-3.1l-0.9-2.6"/>
	<g>
		<path class="st1" d="M286.2,98.1l-3.5,1c-0.3,0.1-0.4,0.4-0.3,0.6l1.8,6.1c0.1,0.3,0.4,0.4,0.6,0.3l3.5-1c0.3-0.1,0.4-0.4,0.3-0.6
			l-1.8-6.1C286.7,98.2,286.4,98,286.2,98.1z"/>
		<path class="st1" d="M296.7,95l-3.5,1c-0.3,0.1-0.4,0.4-0.3,0.6l1.8,6.1c0.1,0.3,0.4,0.4,0.6,0.3l3.5-1c0.3-0.1,0.4-0.4,0.3-0.6
			l-1.8-6.1C297.2,95.1,296.9,94.9,296.7,95z"/>
		<path class="st1" d="M307.1,91.9l-3.5,1c-0.3,0.1-0.4,0.4-0.3,0.6l1.8,6.1c0.1,0.3,0.4,0.4,0.6,0.3l3.5-1c0.3-0.1,0.4-0.4,0.3-0.6
			l-1.8-6.1C307.7,92,307.4,91.8,307.1,91.9z"/>
		<path class="st1" d="M317.6,88.8l-3.5,1c-0.3,0.1-0.4,0.4-0.3,0.6l1.8,6.1c0.1,0.3,0.4,0.4,0.6,0.3l3.5-1c0.3-0.1,0.4-0.4,0.3-0.6
			l-1.8-6.1C318.2,88.9,317.9,88.7,317.6,88.8z"/>
		<path class="st1" d="M328.1,85.7l-3.5,1c-0.3,0.1-0.4,0.4-0.3,0.6l1.8,6.1c0.1,0.3,0.4,0.4,0.6,0.3l3.5-1c0.3-0.1,0.4-0.4,0.3-0.6
			l-1.8-6.1C328.6,85.8,328.4,85.6,328.1,85.7z"/>
		<path class="st1" d="M338.6,82.6l-3.5,1c-0.3,0.1-0.4,0.4-0.3,0.6l1.8,6.1c0.1,0.3,0.4,0.4,0.6,0.3l3.5-1c0.3-0.1,0.4-0.4,0.3-0.6
			l-1.8-6.1C339.1,82.7,338.9,82.5,338.6,82.6z"/>
		<path class="st1" d="M349.1,79.5l-3.5,1c-0.3,0.1-0.4,0.4-0.3,0.6l1.8,6.1c0.1,0.3,0.4,0.4,0.6,0.3l3.5-1c0.3-0.1,0.4-0.4,0.3-0.6
			l-1.8-6.1C349.6,79.6,349.3,79.4,349.1,79.5z"/>
	</g>
	<polyline class="st6" points="359,73.7 359.8,76.4 363.4,78.7 375.5,75.1 	"/>
	<g>
		<path class="st2" d="M283.7,97.4l-3.5,1c-0.3,0.1-0.4,0.4-0.3,0.6l1.8,6.1c0.1,0.3,0.4,0.4,0.6,0.3l3.5-1c0.3-0.1,0.4-0.4,0.3-0.6
			l-1.8-6.1C284.3,97.5,284,97.3,283.7,97.4z"/>
		<path class="st2" d="M294.2,94.3l-3.5,1c-0.3,0.1-0.4,0.4-0.3,0.6l1.8,6.1c0.1,0.3,0.4,0.4,0.6,0.3l3.5-1c0.3-0.1,0.4-0.4,0.3-0.6
			l-1.8-6.1C294.7,94.4,294.5,94.2,294.2,94.3z"/>
		<path class="st2" d="M304.7,91.2l-3.5,1c-0.3,0.1-0.4,0.4-0.3,0.6l1.8,6.1c0.1,0.3,0.4,0.4,0.6,0.3l3.5-1c0.3-0.1,0.4-0.4,0.3-0.6
			l-1.8-6.1C305.2,91.3,305,91.1,304.7,91.2z"/>
		<path class="st2" d="M315.2,88.1l-3.5,1c-0.3,0.1-0.4,0.4-0.3,0.6l1.8,6.1c0.1,0.3,0.4,0.4,0.6,0.3l3.5-1c0.3-0.1,0.4-0.4,0.3-0.6
			l-1.8-6.1C315.7,88.2,315.4,88,315.2,88.1z"/>
		<path class="st2" d="M325.6,85l-3.5,1c-0.3,0.1-0.4,0.4-0.3,0.6l1.8,6.1c0.1,0.3,0.4,0.4,0.6,0.3l3.5-1c0.3-0.1,0.4-0.4,0.3-0.6
			l-1.8-6.1C326.2,85.1,325.9,84.9,325.6,85z"/>
		<path class="st2" d="M336.1,81.9l-3.5,1c-0.3,0.1-0.4,0.4-0.3,0.6l1.8,6.1c0.1,0.3,0.4,0.4,0.6,0.3l3.5-1c0.3-0.1,0.4-0.4,0.3-0.6
			l-1.8-6.1C336.7,82,336.4,81.8,336.1,81.9z"/>
		<path class="st2" d="M346.6,78.8l-3.5,1c-0.3,0.1-0.4,0.4-0.3,0.6l1.8,6.1c0.1,0.3,0.4,0.4,0.6,0.3l3.5-1c0.3-0.1,0.4-0.4,0.3-0.6
			l-1.8-6.1C347.2,78.9,346.9,78.7,346.6,78.8z"/>
	</g>
	<path class="st2" d="M327.2,97.3l-28.7,8.5c-0.5,0.1-0.8,0.7-0.6,1.1l1,3.4c0.1,0.5,0.7,0.8,1.1,0.6l28.7-8.5
		c0.5-0.1,0.8-0.7,0.6-1.1l-1-3.4C328.2,97.4,327.7,97.1,327.2,97.3z"/>
	<path class="st2" d="M258.9,105.6l-19.3,5.9c-1.4,0.4-2.2,1.9-1.8,3.3l0,0c0.4,1.4,1.9,2.2,3.3,1.8l19.3-5.9
		c1.4-0.4,2.2-1.9,1.8-3.3l0,0C261.8,106,260.3,105.2,258.9,105.6z"/>
	<line class="st2" x1="253.5" y1="100.8" x2="251.7" y2="98.2"/>
	<line class="st2" x1="250.5" y1="96.6" x2="243.7" y2="87.5"/>
	<line class="st2" x1="249" y1="130.4" x2="252" y2="129.4"/>
	<line class="st2" x1="253.9" y1="128.7" x2="264.6" y2="124.9"/>
	<line class="st2" x1="242.8" y1="136.7" x2="258.4" y2="131.2"/>
	<line class="st2" x1="268.1" y1="127.9" x2="263.3" y2="129.5"/>
</g>
<g>
	<circle class="st0" cx="69.5" cy="217.5" r="42"/>
	<path class="st1" d="M43.2,230.3c0.4,3.4,2.6,7.4,3.9,11.1c-1.7,0.2-3.4,0.2-5.1-0.1c-0.6-0.1-0.6-0.5-0.6-1c0-1.1-0.2-3-0.3-4.3
		c-0.2-3-3.2-6.6-4.6-12.5c-0.1-0.5,0.2-0.9,0.7-1c0.1,0,0.1,0,0.2,0l6.3,0.2C43.1,225.2,42.9,227.8,43.2,230.3z"/>
	<path class="st1" d="M53.4,190.5l5.4,13.8c-2.2,0.7-4.2,1.8-6,3.2l-9.5-9.8c-0.2-0.3-0.3-0.7,0-0.9c2.6-2.9,5.7-5.1,9.3-6.7
		C52.8,189.9,53.2,190.1,53.4,190.5C53.4,190.4,53.4,190.5,53.4,190.5z"/>
	<path class="st1" d="M83.2,190.7c0.3,0.1,0.4,0.4,0.4,0.7c0,0,0,0.1,0,0.1c-0.2,0.5-5.9,12.8-6.6,14.2c-2.8-1.3-5.8-2.1-8.8-2.4
		l1.9-14.8c0.1-0.4,0.4-0.7,0.8-0.7C75.1,188.3,79.2,189.3,83.2,190.7z"/>
	<path class="st1" d="M37.4,210l9.7,4c-1.4,2.3-2.4,4.8-3.1,7.4l-6.9-0.2c-0.6,0-1-0.5-1.1-1c-0.3-3.3,0-6.7,0.8-9.9
		C36.8,210.1,37.1,210,37.4,210C37.3,210,37.4,210,37.4,210z"/>
	<path class="st1" d="M39.2,203.1c0.7-1.6,1.6-3.2,2.6-4.6c0.2-0.3,0.6-0.3,0.8-0.1c0,0,0,0,0.1,0.1l9.4,9.6
		c-1.7,1.5-3.2,3.2-4.4,5.1l-9.9-4.1c-0.3-0.1-0.5-0.5-0.4-0.8C37.9,206.5,38.5,204.8,39.2,203.1z"/>
	<path class="st1" d="M68.9,188.4L67,203.2c-1.4-0.1-2.7,0-4.1,0.2c-1.1,0.1-2.1,0.3-3.2,0.6l-5.4-13.8c-0.1-0.4,0-0.8,0.4-0.9
		c0,0,0,0,0,0c4.3-1.4,8.8-2,13.3-1.7C68.6,187.5,68.9,187.9,68.9,188.4C68.9,188.4,68.9,188.4,68.9,188.4z"/>
	<path class="st0" d="M42.2,231.7c0.6,3.7,1.6,7.3,2.9,10.9c-1.3,0.2-2.7,0.3-4.1,0c-0.6-0.1-0.6-0.5-0.6-1c0-1.1-0.2-3-0.3-4.3
		c-0.2-3-3.2-6.6-4.6-12.5c-0.1-0.5,0.2-0.9,0.7-1c0.1,0,0.1,0,0.2,0l6.3,0.2C42.1,226.5,42,229.1,42.2,231.7z"/>
	<path class="st0" d="M52.5,191.8l5.4,13.8c-2.2,0.7-4.2,1.8-6,3.2l-9.5-9.8c-0.2-0.3-0.3-0.7,0-0.9c2.6-2.9,5.7-5.1,9.3-6.7
		C51.9,191.3,52.3,191.4,52.5,191.8C52.5,191.8,52.5,191.8,52.5,191.8z"/>
	<path class="st0" d="M82.3,192c0.3,0.1,0.4,0.4,0.4,0.7c0,0,0,0.1,0,0.1c-0.2,0.5-5.9,12.8-6.6,14.2c-2.8-1.3-5.8-2.1-8.8-2.4
		l1.9-14.8c0.1-0.4,0.4-0.7,0.8-0.7C74.2,189.6,78.3,190.6,82.3,192z"/>
	<path class="st0" d="M36.5,211.4l9.7,4c-1.4,2.3-2.4,4.8-3.1,7.4l-6.9-0.2c-0.6,0-1-0.5-1.1-1c-0.3-3.3,0-6.7,0.8-9.9
		C35.9,211.4,36.1,211.3,36.5,211.4C36.4,211.4,36.4,211.4,36.5,211.4z"/>
	<path class="st0" d="M38.2,204.5c0.7-1.6,1.6-3.2,2.6-4.6c0.2-0.3,0.6-0.3,0.8-0.1c0,0,0,0,0.1,0.1l9.4,9.6
		c-1.7,1.5-3.2,3.2-4.4,5.1l-9.9-4.1c-0.3-0.1-0.5-0.5-0.4-0.8C36.9,207.8,37.5,206.1,38.2,204.5z"/>
	<path class="st0" d="M68,189.8l-1.9,14.7c-1.4-0.1-2.7,0-4.1,0.2c-1.1,0.1-2.1,0.3-3.2,0.6l-5.4-13.8c-0.1-0.4,0-0.8,0.4-0.9
		c0,0,0,0,0,0c4.3-1.4,8.8-2,13.3-1.7C67.7,188.9,68,189.3,68,189.8C68,189.7,68,189.8,68,189.8z"/>
	<path class="st2" d="M47.3,241.7c1.7,4.7,3.3,8.9,3.6,11.7c0.1,0.7,0.1,1.4-0.1,2.1"/>
	<path class="st2" d="M78.8,257.2L78.8,257.2c-1.1-2-2.3-4-3.5-5.9c-1.1-1.5-2.1-3-2.9-4.7c-0.1-0.2-0.2-0.5-0.2-0.8
		c0-0.3,0.1-0.5,0.3-0.7c0.2-0.1,0.4-0.2,0.6-0.2c1.7-0.1,3.5,0.1,5.2,0.1c1.7,0,3.4,0.1,5.1,0c1.8,0,3.6-0.2,5.4-0.5
		c1.3-0.1,2.6-0.6,3.7-1.4c2.4-2.1,4.2-4.7,5.5-7.6c0.9-2.6,0.7-5.5-0.7-8c-2.9-5.3-6.5-10.2-10.8-14.5c4.4-8.7,7.8-15.7,7.3-18
		c0-0.1-0.1-0.3-0.2-0.4c0-0.1-0.1-0.1-0.1-0.1l0,0c0,0-0.1-0.1-0.2-0.1c-0.2-0.1-0.3-0.1-0.5-0.1c-0.1,0-0.2,0-0.3,0
		c-1.4,0.4-2.7,1.2-3.9,2.1c-0.4,0.3-0.7,0.5-1.1,0.8c-0.4,0.3-0.7,0.6-1.1,0.9c-1.3,1.1-7.9,6.4-9.1,7.7"/>
	<path class="st4" d="M37.5,223.4l5,0.2c-0.4,2.3-0.5,4.6-0.3,6.9c0.5,2.7,1.3,5.4,2.4,8c0.2,0.6,0.5,1.3,0.7,1.9
		c-0.3,0-0.6,0-0.9,0c-0.7,0-1.4,0-2-0.1c0,0,0-0.1,0-0.1c0-1.2-0.2-3.3-0.3-4.3c-0.3-1.8-0.9-3.6-1.8-5.2
		C39.1,228.3,38.2,225.9,37.5,223.4 M37.3,222.4c-0.5,0-0.9,0.4-0.9,0.9c0,0.1,0,0.1,0,0.2c1.4,5.9,4.4,9.5,4.6,12.5
		c0.1,1.3,0.2,3.1,0.3,4.3c0,0.6,0.1,0.9,0.6,1c0.8,0.1,1.6,0.2,2.4,0.2c0.8,0,1.5-0.1,2.3-0.2c-1.3-3.6-3.1-7.5-3.5-10.9
		c-0.3-2.6-0.1-5.2,0.5-7.7L37.3,222.4L37.3,222.4L37.3,222.4z"/>
	<path class="st4" d="M52.6,191.1l4.9,12.5c-1.6,0.6-3.2,1.5-4.6,2.5l-8.7-9C46.5,194.6,49.4,192.6,52.6,191.1 M52.8,190
		c-0.1,0-0.2,0-0.3,0.1c-3.5,1.5-6.7,3.8-9.3,6.7c-0.2,0.3-0.2,0.7,0,0.9l9.5,9.8c1.8-1.4,3.8-2.5,6-3.2l-5.4-13.8
		C53.3,190.2,53,190,52.8,190L52.8,190z"/>
	<path class="st4" d="M71,188.8c3.9,0.5,7.7,1.4,11.4,2.7c-0.7,1.6-3.7,8.1-6,12.8c-2.3-1-4.7-1.6-7.2-2L71,188.8 M83.5,191.4
		c0.1-0.3,0-0.6-0.2-0.7c0,0-0.1,0-0.1,0c-4-1.4-8.1-2.4-12.3-2.9c0,0-0.1,0-0.1,0l0,0c-0.4,0-0.7,0.3-0.7,0.7l-1.9,14.8
		c3.1,0.3,6,1.1,8.8,2.4"/>
	<path class="st4" d="M37.6,211.2l8,3.3c-1,1.9-1.8,3.9-2.4,5.9l-6.1-0.2c-0.1,0-0.1-0.1-0.1-0.1C36.7,217.2,36.9,214.1,37.6,211.2
		 M37.2,210c-0.2,0-0.4,0.1-0.5,0.4c-0.8,3.2-1.1,6.6-0.8,9.9c0.1,0.6,0.5,1,1.1,1l6.9,0.2c0.7-2.6,1.7-5.1,3.1-7.4l-9.7-4
		C37.3,210,37.3,210,37.2,210L37.2,210z"/>
	<path class="st4" d="M42.3,199.5l8.3,8.5c-1.2,1.2-2.4,2.5-3.3,3.9l-8.9-3.7c0.5-1.6,1.1-3.2,1.7-4.7
		C40.7,202.1,41.4,200.8,42.3,199.5 M42.2,198.3c-0.2,0-0.4,0.1-0.5,0.2c-1,1.4-1.9,3-2.6,4.6c-0.7,1.7-1.3,3.3-1.8,5.1
		c-0.1,0.3,0.1,0.7,0.4,0.8l9.9,4.1c1.2-1.9,2.7-3.6,4.4-5.1l-9.4-9.6C42.6,198.4,42.4,198.3,42.2,198.3z"/>
	<path class="st4" d="M65.9,188.5L65.9,188.5c0.7,0,1.3,0,2,0.1l-1.8,13.6l-0.1,0c-1.1,0-2.1,0.1-3.2,0.2c-0.8,0.1-1.6,0.2-2.4,0.4
		l-5-12.7C58.8,189,62.3,188.4,65.9,188.5 M65.9,187.5c-3.7,0-7.5,0.5-11,1.7c-0.4,0.1-0.6,0.5-0.5,0.9c0,0,0,0,0,0l5.4,13.8
		c1-0.3,2.1-0.5,3.2-0.6c1-0.1,2-0.2,3.1-0.2c0.3,0,0.7,0,1,0l1.9-14.7c0.1-0.4-0.3-0.9-0.7-0.9c0,0,0,0-0.1,0
		C67.4,187.5,66.6,187.5,65.9,187.5L65.9,187.5z"/>
	<path class="st2" d="M55.9,257.2c-0.2-3.6-0.4-7.7-0.5-12.4c0-1,0.7-1.8,1.7-1.9c0.2,0,0.4,0,0.5,0.1c1.3,0.4,2.5,1.2,3.2,2.4
		c2.6,3.6,5.6,9.4,7.7,13.4"/>
	<path class="st1" d="M63.5,197.9c-1.7-0.6-7.1,8-6.7,9.7s6.5,3.5,8.3,1.9c0.9-1.5,1.4-3.2,1.2-4.9
		C65.7,202.8,65.2,198.5,63.5,197.9z"/>
	<path class="st0" d="M63.4,200c1.3,1.2,1.7,4.7,2.2,6.3c0.2,1.7-0.2,3.4-1.2,4.9c-0.6,0.5-1.4,0.7-2.2,0.6
		C61.5,201.3,62.4,199.2,63.4,200z"/>
	<path class="st2" d="M64,198.3c1.3,1.2,1.7,4.7,2.2,6.3c0.2,1.7-0.2,3.4-1.2,4.9c-0.6,0.5-1.4,0.7-2.2,0.6
		C62.1,199.6,63.1,197.5,64,198.3z"/>
	<circle class="st2" cx="74.5" cy="220.5" r="2"/>
	<path class="st2" d="M63.5,197.9c-1.7-0.6-7.1,8-6.7,9.7s6.5,3.5,8.3,1.9c0.9-1.5,1.4-3.2,1.2-4.9
		C65.7,202.8,65.2,198.5,63.5,197.9z"/>
</g>
<g>
	<ellipse class="st0" cx="1229.9" cy="344.1" rx="33.7" ry="33.7"/>
	<polygon class="st2" points="1231.8,298.5 1221.3,298.5 1223,291.5 1230,291.5 	"/>
	<ellipse class="st2" cx="1226.5" cy="342.7" rx="43.8" ry="43.8"/>
	<ellipse class="st2" cx="1226.5" cy="342.7" rx="33.7" ry="33.7"/>
	<polygon class="st2" points="1270.5,347.9 1270.5,337.4 1277.5,339.2 1277.5,346.2 	"/>
	<polygon class="st2" points="1175.5,346.2 1175.5,339.2 1182.5,337.4 1182.5,347.9 	"/>
	<polygon class="st2" points="1261.1,315.3 1253.9,308.1 1259.9,304.6 1264.7,309.3 	"/>
	<polygon class="st2" points="1193.2,380.8 1188.4,376 1192,370 1199.1,377.2 	"/>
	<polygon class="st2" points="1253.9,377.2 1261.1,370 1264.7,376 1259.9,380.8 	"/>
	<polygon class="st2" points="1188.4,309.3 1193.2,304.6 1199.1,308.1 1192,315.3 	"/>
	<polygon class="st2" points="1248,304.1 1238.6,300.3 1242.8,294.7 1249,297.3 	"/>
	<polygon class="st2" points="1210.3,390.6 1204.1,388 1205.1,381.2 1214.4,385 	"/>
	<polygon class="st2" points="1265.1,364.1 1269,354.7 1274.5,358.9 1272,365.1 	"/>
	<polygon class="st2" points="1178.5,326.4 1181.1,320.2 1188,321.2 1184.1,330.6 	"/>
	<polygon class="st2" points="1269,330.6 1265.1,321.2 1272,320.2 1274.5,326.4 	"/>
	<polygon class="st2" points="1181.1,365.1 1178.5,358.9 1184.1,354.7 1188,364.1 	"/>
	<polygon class="st2" points="1238.6,385 1248,381.2 1249,388 1242.8,390.6 	"/>
	<polygon class="st2" points="1204.1,297.3 1210.3,294.7 1214.4,300.3 1205.1,304.1 	"/>
	<line class="st2" x1="1208" y1="396.5" x2="1245" y2="396.5"/>
	<line class="st2" x1="1226.5" y1="347.7" x2="1233.3" y2="396.5"/>
	<line class="st2" x1="1226.5" y1="347.7" x2="1219.8" y2="396.5"/>
	<ellipse class="st2" cx="1226.5" cy="342.7" rx="5.1" ry="5.1"/>
	<line class="st2" x1="1226.5" y1="338" x2="1226.5" y2="309"/>
	<line class="st2" x1="1260" y1="342.5" x2="1232" y2="342.5"/>
	<line class="st2" x1="1221" y1="342.5" x2="1193" y2="342.5"/>
	<line class="st2" x1="1250.4" y1="318.9" x2="1230.1" y2="339.1"/>
	<line class="st2" x1="1223" y1="346.2" x2="1202.7" y2="366.5"/>
	<line class="st2" x1="1250.4" y1="366.5" x2="1230.1" y2="346.2"/>
	<line class="st2" x1="1223" y1="339.1" x2="1202.7" y2="318.9"/>
	<line class="st2" x1="1239.4" y1="311.5" x2="1228.5" y2="338"/>
	<line class="st2" x1="1224.6" y1="347.3" x2="1213.6" y2="373.8"/>
	<line class="st2" x1="1257.7" y1="355.5" x2="1231.2" y2="344.6"/>
	<line class="st2" x1="1221.9" y1="340.7" x2="1195.4" y2="329.8"/>
	<line class="st2" x1="1257.7" y1="329.8" x2="1231.2" y2="340.7"/>
	<line class="st2" x1="1221.9" y1="344.6" x2="1195.4" y2="355.5"/>
	<line class="st2" x1="1239.4" y1="373.8" x2="1228.5" y2="347.3"/>
	<line class="st2" x1="1224.6" y1="338" x2="1213.6" y2="311.5"/>
</g>
<g>
	<path class="st2" d="M366,407.5l-84.6-0.1c-11.2,0-19.6-7.2-19.6-16s8.3-15.9,19.6-15.9h26.5"/>
	<path class="st2" d="M469.1,342.5l37.5,0c11.7,0,21.2,7.3,21.2,16.5s-9.5,16.5-21.2,16.5L391,375.4"/>
</g>
<g>
	<g>
		<line class="st7" x1="1460" y1="361" x2="1455" y2="361"/>
		<ellipse class="st1" cx="1490.5" cy="382.3" rx="10.3" ry="10.2"/>
		<ellipse class="st1" cx="1458.9" cy="382.3" rx="10.3" ry="10.2"/>
		<ellipse class="st2" cx="1490.5" cy="379.7" rx="10.3" ry="10.2"/>
		<ellipse class="st2" cx="1458" cy="379.7" rx="10.3" ry="10.2"/>
		<path class="st2" d="M1452,382.9c1,1.8,2.7,3,4.7,3.5"/>
		<path class="st2" d="M1451.2,379.7c0,0.2,0,0.5,0,0.7"/>
		<ellipse class="st2" cx="1474.2" cy="379.7" rx="3.4" ry="3.4"/>
		<polyline class="st2" points="1460,379.5 1468.3,379.5 1474.2,379.5 1482.6,364.5 1466.6,364.5 1463.1,370.8 1459.1,378 		"/>
		<line class="st2" x1="1474.2" y1="379.7" x2="1476" y2="385.7"/>
		<line class="st2" x1="1474" y1="385.5" x2="1478" y2="385.5"/>
		<ellipse class="st2" cx="1458" cy="379.7" rx="1.7" ry="1.7"/>
		<ellipse class="st2" cx="1490.5" cy="379.7" rx="1.7" ry="1.7"/>
		<polyline class="st2" points="1479.8,358.5 1485.9,370.6 1489.7,378.2 		"/>
		<path class="st2" d="M1480,358.5h6.2c0.4-0.1,0.9,0,1.2,0.4c0.3,0.3,0.5,0.8,0.5,1.2c0.1,0.8-0.5,1.4-1.3,1.5c-0.2,0-0.3,0-0.5,0
			h-1.2"/>
		<line class="st2" x1="1464.4" y1="360.2" x2="1474.2" y2="379.7"/>
		<line class="st2" x1="1462" y1="360.5" x2="1469" y2="360.5"/>
		<path class="st2" d="M1484.5,382.9c1,1.8,2.7,3,4.7,3.5"/>
		<path class="st2" d="M1483.7,379.7c0,0.2,0,0.5,0,0.7"/>
	</g>
	<line class="st2" x1="1454" y1="348.5" x2="1451" y2="348.5"/>
	<line class="st2" x1="1457" y1="352.5" x2="1452" y2="352.5"/>
	<line class="st2" x1="1456" y1="355.5" x2="1451" y2="355.5"/>
</g>
<line class="st2" x1="1448" y1="390.5" x2="1561" y2="390.5"/>
<path class="st2" d="M1285.9,363.5l31.4-0.1c11.3,0,19.6-7.2,19.6-16s-8.4-15.9-19.6-15.9h-22.3"/>
<path class="st2" d="M1153,268.5l-26.6,0c-11.5,0-20.9,7.3-20.9,16.5s9.4,16.5,20.9,16.5l60.6-0.1"/>
<g>
	<circle class="st2" cx="231" cy="414" r="13.5"/>
	<line class="st2" x1="242.4" y1="406.7" x2="218.8" y2="420.3"/>
	<line class="st2" x1="242.4" y1="420.3" x2="219.3" y2="407.2"/>
	<line class="st2" x1="230.5" y1="439" x2="230.5" y2="400"/>
</g>
<g>
	<rect x="341" y="360" class="st0" width="10" height="7"/>
	<g>
		<ellipse class="st1" cx="328.6" cy="381.4" rx="5.9" ry="5.9"/>
		<ellipse class="st1" cx="370.7" cy="381.4" rx="5.9" ry="5.9"/>
		<line class="st2" x1="336" y1="378.5" x2="366" y2="378.5"/>
		<path class="st2" d="M379,379.5h0.2c3.5,0,6.4-2.9,6.3-6.4l0,0c0-3.1-2.2-5.8-5.3-6.3l-5.6-0.9c-2.1-0.3-4-1.2-5.6-2.6l-8.4-7.1
			c-2.1-1.8-4.7-2.7-7.5-2.7h-17.7c-3.2,0-6.4,1.2-8.8,3.4l-6.5,5.9c-1.7,1.6-2.7,3.8-2.7,6.1v3.4c0,3.9,3.1,7.1,7,7.1l0,0"/>
		<path class="st2" d="M362,357.5h-27.1c-2.1,0-4,0.8-5.5,2.2l-3,2.8c-0.5,0.4-0.5,1.2-0.1,1.7c0.2,0.2,0.5,0.4,0.9,0.4H372"/>
		<line class="st2" x1="339.5" y1="365" x2="339.5" y2="358"/>
		<line class="st2" x1="349.5" y1="365" x2="349.5" y2="358"/>
		<line class="st2" x1="380" y1="371.5" x2="384" y2="371.5"/>
		<line class="st2" x1="351" y1="369.5" x2="353" y2="369.5"/>
		<ellipse class="st2" cx="329.7" cy="380.2" rx="5.9" ry="5.9"/>
		<ellipse class="st2" cx="329.7" cy="380.2" rx="1.2" ry="1.2"/>
		<ellipse class="st2" cx="371.9" cy="380.2" rx="1.2" ry="1.2"/>
		<ellipse class="st2" cx="371.9" cy="380.2" rx="5.9" ry="5.9"/>
	</g>
</g>
<path class="st2" d="M440,438.5l24.6-0.1c11.2,0,19.6-7.2,19.6-16s-8.3-15.9-19.6-15.9H448"/>
<g>
	<line class="st2" x1="303" y1="267.5" x2="279" y2="267.5"/>
	<line class="st2" x1="303" y1="277.5" x2="279" y2="277.5"/>
	<polyline class="st2" points="302.5,285 302.5,256.5 278.5,256.5 278.5,342 	"/>
	<polyline class="st2" points="290.5,343 290.5,290.7 316.4,279 	"/>
	<line class="st2" x1="297.5" y1="333" x2="297.5" y2="331"/>
	<line class="st2" x1="303.5" y1="333" x2="303.5" y2="331"/>
	<line class="st2" x1="309.5" y1="333" x2="309.5" y2="331"/>
	<line class="st2" x1="297.5" y1="325" x2="297.5" y2="322"/>
	<line class="st2" x1="303.5" y1="325" x2="303.5" y2="322"/>
	<line class="st2" x1="309.5" y1="325" x2="309.5" y2="322"/>
	<line class="st2" x1="297.5" y1="316" x2="297.5" y2="314"/>
	<line class="st2" x1="303.5" y1="316" x2="303.5" y2="314"/>
	<line class="st2" x1="309.5" y1="316" x2="309.5" y2="314"/>
	<line class="st2" x1="297.5" y1="307" x2="297.5" y2="305"/>
	<line class="st2" x1="303.5" y1="307" x2="303.5" y2="305"/>
	<line class="st2" x1="309.5" y1="307" x2="309.5" y2="305"/>
	<line class="st2" x1="297.5" y1="298" x2="297.5" y2="296"/>
	<line class="st2" x1="303.5" y1="298" x2="303.5" y2="296"/>
	<line class="st2" x1="309.5" y1="298" x2="309.5" y2="296"/>
	<line class="st2" x1="428.5" y1="198" x2="428.5" y2="172"/>
	<polyline class="st2" points="420.6,205.5 424.1,197.5 433.6,197.5 437,205.5 	"/>
	<polyline class="st2" points="413,215.8 417.2,205.5 441.2,205.5 444.7,215.8 	"/>
	<polyline class="st2" points="409.5,341 409.5,215.5 447.5,215.5 447.5,342 	"/>
	<line class="st2" x1="438.5" y1="331" x2="438.5" y2="329"/>
	<line class="st2" x1="429.5" y1="331" x2="429.5" y2="329"/>
	<line class="st2" x1="419.5" y1="331" x2="419.5" y2="329"/>
	<line class="st2" x1="438.5" y1="321" x2="438.5" y2="319"/>
	<line class="st2" x1="429.5" y1="321" x2="429.5" y2="319"/>
	<line class="st2" x1="419.5" y1="321" x2="419.5" y2="319"/>
	<line class="st2" x1="438.5" y1="311" x2="438.5" y2="309"/>
	<line class="st2" x1="429.5" y1="311" x2="429.5" y2="309"/>
	<line class="st2" x1="419.5" y1="311" x2="419.5" y2="309"/>
	<line class="st2" x1="438.5" y1="311" x2="438.5" y2="308"/>
	<line class="st2" x1="429.5" y1="311" x2="429.5" y2="308"/>
	<line class="st2" x1="419.5" y1="311" x2="419.5" y2="308"/>
	<line class="st2" x1="438.5" y1="301" x2="438.5" y2="298"/>
	<line class="st2" x1="429.5" y1="301" x2="429.5" y2="298"/>
	<line class="st2" x1="419.5" y1="301" x2="419.5" y2="298"/>
	<line class="st2" x1="438.5" y1="290" x2="438.5" y2="288"/>
	<line class="st2" x1="429.5" y1="290" x2="429.5" y2="288"/>
	<line class="st2" x1="419.5" y1="290" x2="419.5" y2="288"/>
	<line class="st2" x1="438.5" y1="290" x2="438.5" y2="287"/>
	<line class="st2" x1="429.5" y1="290" x2="429.5" y2="287"/>
	<line class="st2" x1="419.5" y1="290" x2="419.5" y2="287"/>
	<line class="st2" x1="438.5" y1="280" x2="438.5" y2="277"/>
	<line class="st2" x1="429.5" y1="280" x2="429.5" y2="277"/>
	<line class="st2" x1="419.5" y1="280" x2="419.5" y2="277"/>
	<line class="st2" x1="438.5" y1="270" x2="438.5" y2="267"/>
	<line class="st2" x1="429.5" y1="270" x2="429.5" y2="267"/>
	<line class="st2" x1="419.5" y1="270" x2="419.5" y2="267"/>
	<line class="st2" x1="438.5" y1="269" x2="438.5" y2="266"/>
	<line class="st2" x1="429.5" y1="269" x2="429.5" y2="266"/>
	<line class="st2" x1="419.5" y1="269" x2="419.5" y2="266"/>
	<line class="st2" x1="438.5" y1="259" x2="438.5" y2="256"/>
	<line class="st2" x1="429.5" y1="259" x2="429.5" y2="256"/>
	<line class="st2" x1="419.5" y1="259" x2="419.5" y2="256"/>
	<line class="st2" x1="438.5" y1="248" x2="438.5" y2="246"/>
	<line class="st2" x1="429.5" y1="248" x2="429.5" y2="246"/>
	<line class="st2" x1="419.5" y1="248" x2="419.5" y2="246"/>
	<line class="st2" x1="438.5" y1="238" x2="438.5" y2="236"/>
	<line class="st2" x1="429.5" y1="238" x2="429.5" y2="236"/>
	<line class="st2" x1="419.5" y1="238" x2="419.5" y2="236"/>
	<line class="st2" x1="438.5" y1="228" x2="438.5" y2="225"/>
	<line class="st2" x1="429.5" y1="228" x2="429.5" y2="225"/>
	<line class="st2" x1="419.5" y1="228" x2="419.5" y2="225"/>
	<rect x="371.5" y="256.5" class="st2" width="34" height="86"/>
	<line class="st2" x1="398.5" y1="257" x2="398.5" y2="325"/>
	<line class="st2" x1="391.5" y1="257" x2="391.5" y2="325"/>
	<line class="st2" x1="384.5" y1="257" x2="384.5" y2="325"/>
	<line class="st2" x1="378.5" y1="257" x2="378.5" y2="325"/>
	<line class="st2" x1="380.5" y1="325" x2="380.5" y2="343"/>
	<line class="st2" x1="396.5" y1="325" x2="396.5" y2="343"/>
	<line class="st2" x1="388.5" y1="325" x2="388.5" y2="343"/>
	<line class="st2" x1="405" y1="297.5" x2="371" y2="297.5"/>
	<line class="st2" x1="405" y1="290.5" x2="371" y2="290.5"/>
	<line class="st2" x1="405" y1="283.5" x2="371" y2="283.5"/>
	<line class="st2" x1="405" y1="277.5" x2="371" y2="277.5"/>
	<line class="st2" x1="405" y1="270.5" x2="371" y2="270.5"/>
	<line class="st2" x1="405" y1="263.5" x2="371" y2="263.5"/>
	<line class="st2" x1="405" y1="304.5" x2="371" y2="304.5"/>
	<line class="st2" x1="405" y1="311.5" x2="371" y2="311.5"/>
	<line class="st2" x1="405" y1="317.5" x2="371" y2="317.5"/>
	<line class="st2" x1="405" y1="324.5" x2="371" y2="324.5"/>
	<rect x="366.5" y="249.5" class="st2" width="43" height="93"/>
	<rect x="321.5" y="265.5" class="st2" width="40" height="77"/>
	<line class="st2" x1="353.5" y1="266" x2="353.5" y2="322"/>
	<line class="st2" x1="345.5" y1="266" x2="345.5" y2="322"/>
	<line class="st2" x1="337.5" y1="266" x2="337.5" y2="322"/>
	<line class="st2" x1="341.5" y1="250" x2="341.5" y2="255"/>
	<line class="st2" x1="329.5" y1="266" x2="329.5" y2="322"/>
	<line class="st2" x1="332.5" y1="322" x2="332.5" y2="343"/>
	<line class="st2" x1="350.5" y1="322" x2="350.5" y2="343"/>
	<line class="st2" x1="341.5" y1="322" x2="341.5" y2="343"/>
	<line class="st2" x1="361" y1="289.5" x2="322" y2="289.5"/>
	<line class="st2" x1="361" y1="281.5" x2="322" y2="281.5"/>
	<line class="st2" x1="361" y1="273.5" x2="322" y2="273.5"/>
	<line class="st2" x1="361" y1="297.5" x2="322" y2="297.5"/>
	<line class="st2" x1="361" y1="305.5" x2="322" y2="305.5"/>
	<line class="st2" x1="361" y1="313.5" x2="322" y2="313.5"/>
	<line class="st2" x1="361" y1="321.5" x2="322" y2="321.5"/>
	<rect x="316.5" y="260.5" class="st2" width="50" height="82"/>
	<rect x="324.5" y="255.5" class="st2" width="35" height="5"/>
	<g>
		<polyline class="st2" points="380.5,230 380.5,223.5 396.5,223.5 396.5,249.5 381,249.5 		"/>
		
			<rect x="365.5" y="234.6" transform="matrix(5.214446e-03 -1 1 5.214446e-03 134.0452 613.746)" class="st2" width="19.9" height="9.9"/>
		<rect x="382.5" y="219.5" class="st2" width="11" height="4"/>
		<rect x="385.5" y="215.5" class="st2" width="6" height="4"/>
		<line class="st2" x1="381" y1="247.5" x2="371" y2="247.4"/>
		
			<rect x="371" y="236" transform="matrix(5.129984e-03 -1 1 5.129984e-03 135.5756 613.2686)" class="st8" width="10" height="5.1"/>
		<rect x="383.5" y="226.5" class="st2" width="9" height="19"/>
		<line class="st2" x1="388.5" y1="227" x2="388.5" y2="246"/>
		<line class="st2" x1="388.5" y1="204" x2="388.5" y2="216"/>
		<line class="st2" x1="370.5" y1="227" x2="370.5" y2="230"/>
		<rect x="396.5" y="229.5" class="st2" width="10" height="20"/>
		<line class="st2" x1="396" y1="247.5" x2="406" y2="247.5"/>
		<rect x="398.5" y="233.5" class="st2" width="5" height="10"/>
		<line class="st2" x1="406.5" y1="227" x2="406.5" y2="230"/>
		<line class="st2" x1="373" y1="237.5" x2="378" y2="237.5"/>
		<line class="st2" x1="404" y1="237.5" x2="399" y2="237.5"/>
	</g>
</g>
<path class="st2" d="M1168.9,364.5l-10.7-0.1c-11.1,0-19.4-7.2-19.4-16s8.2-15.9,19.4-15.9h15.6"/>
<path class="st9" d="M427.2,45.2c24.1-8.7,69.6-14,104-6.2"/>
<line class="st2" x1="1190" y1="396.5" x2="1091" y2="396.5"/>
<g>
	<circle class="st0" cx="1383" cy="231" r="19"/>
	<rect x="1348.5" y="197.5" class="st2" width="63" height="71"/>
	<polyline class="st2" points="1408.5,269 1408.5,378.5 1352.5,378.5 1352.5,269 	"/>
	<circle class="st2" cx="1380.5" cy="228.5" r="19"/>
	<polyline class="st2" points="1380.5,220 1380.5,230.5 1387,230.5 	"/>
	<g>
		<g>
			<path class="st2" d="M1363,283.8c-0.8,0-1.5,0.7-1.5,1.6l0,10.1h3l0-10.1C1364.5,284.5,1363.8,283.8,1363,283.8z"/>
			<path class="st2" d="M1372,283.8c-0.8,0-1.5,0.7-1.5,1.6l0,10.1h3l0-10.1C1373.5,284.5,1372.8,283.8,1372,283.8z"/>
			<path class="st2" d="M1380,283.8c-0.8,0-1.5,0.7-1.5,1.6l0,10.1h3l0-10.1C1381.5,284.5,1380.8,283.8,1380,283.8z"/>
			<path class="st2" d="M1389,283.8c-0.8,0-1.5,0.7-1.5,1.6l0,10.1h3l0-10.1C1390.5,284.5,1389.8,283.8,1389,283.8z"/>
			<path class="st2" d="M1398,283.8c-0.8,0-1.5,0.7-1.5,1.6l0,10.1h3l0-10.1C1399.5,284.5,1398.8,283.8,1398,283.8z"/>
		</g>
		<g>
			<rect x="1361.5" y="301.5" class="st2" width="3" height="12"/>
			<rect x="1370.5" y="301.5" class="st2" width="3" height="12"/>
			<rect x="1378.5" y="301.5" class="st2" width="3" height="12"/>
			<rect x="1387.5" y="301.5" class="st2" width="3" height="12"/>
			<rect x="1396.5" y="301.5" class="st2" width="3" height="12"/>
		</g>
		<g>
			<rect x="1361.5" y="319.5" class="st2" width="3" height="12"/>
			<rect x="1370.5" y="319.5" class="st2" width="3" height="12"/>
			<rect x="1378.5" y="319.5" class="st2" width="3" height="12"/>
			<rect x="1387.5" y="319.5" class="st2" width="3" height="12"/>
			<rect x="1396.5" y="319.5" class="st2" width="3" height="12"/>
		</g>
		<g>
			<rect x="1361.5" y="336.5" class="st2" width="3" height="12"/>
			<rect x="1370.5" y="336.5" class="st2" width="3" height="12"/>
			<rect x="1378.5" y="336.5" class="st2" width="3" height="12"/>
			<rect x="1387.5" y="336.5" class="st2" width="3" height="12"/>
			<rect x="1396.5" y="336.5" class="st2" width="3" height="12"/>
		</g>
		<g>
			<rect x="1361.5" y="354.5" class="st2" width="3" height="12"/>
			<rect x="1370.5" y="354.5" class="st2" width="3" height="12"/>
			<rect x="1378.5" y="354.5" class="st2" width="3" height="12"/>
			<rect x="1387.5" y="354.5" class="st2" width="3" height="12"/>
			<rect x="1396.5" y="354.5" class="st2" width="3" height="12"/>
		</g>
	</g>
	<polyline class="st2" points="1352.5,197 1352.5,174.5 1408.5,174.5 1408.5,197 	"/>
	<rect x="1364.5" y="138.5" class="st2" width="32" height="26"/>
	<g>
		<line class="st10" x1="1352.3" y1="174.1" x2="1364.7" y2="164.4"/>
		<line class="st10" x1="1396.9" y1="164.4" x2="1408.6" y2="174.1"/>
	</g>
	<g>
		<path class="st2" d="M1365.5,197l0-9.5c0-0.8-0.7-1.5-1.5-1.5c-0.8,0-1.5,0.7-1.5,1.5l0,9.5"/>
		<path class="st2" d="M1373.5,197l0-9.5c0-0.8-0.7-1.5-1.5-1.5c-0.8,0-1.5,0.7-1.5,1.5l0,9.5"/>
		<path class="st2" d="M1382.5,197l0-9.5c0-0.8-0.7-1.5-1.5-1.5c-0.8,0-1.5,0.7-1.5,1.5l0,9.5"/>
		<path class="st2" d="M1391.5,197l0-9.5c0-0.8-0.7-1.5-1.5-1.5c-0.8,0-1.5,0.7-1.5,1.5l0,9.5"/>
		<path class="st2" d="M1399.5,197l0-9.5c0-0.8-0.7-1.5-1.5-1.5c-0.8,0-1.5,0.7-1.5,1.5l0,9.5"/>
	</g>
	<g>
		<path class="st2" d="M1373.5,164l0-9.3c0-0.8-0.7-1.5-1.5-1.5c-0.8,0-1.5,0.7-1.5,1.5l0,9.3"/>
		<path class="st2" d="M1382.5,164l0-9.3c0-0.8-0.7-1.5-1.5-1.5c-0.8,0-1.5,0.7-1.5,1.5l0,9.3"/>
		<path class="st2" d="M1391.5,164l0-9.3c0-0.8-0.7-1.5-1.5-1.5c-0.8,0-1.5,0.7-1.5,1.5l0,9.3"/>
	</g>
	<g>
		<path class="st2" d="M1368,138.7c1.2-2.6,2.3-5.3,3.2-8c0.9-2.9,1.7-5.8,2.4-8.8c2.2-10.3,3.6-20.8,4.2-31.3h1.8v-32h2v32h1.7
			c0.6,10.5,2,21,4.2,31.3c0.7,3,1.5,6,2.4,8.8c0.9,2.7,1.9,5.4,3.2,8"/>
		<circle class="st0" cx="1380.5" cy="72.5" r="3"/>
		<circle class="st4" cx="1380" cy="72" r="1"/>
	</g>
	<path class="st2" d="M1373.5,268l0-9.4c0-0.8-0.7-1.5-1.5-1.5c-0.8,0-1.5,0.7-1.5,1.5l0,9.4"/>
	<path class="st2" d="M1382.5,268l0-9.4c0-0.8-0.7-1.5-1.5-1.5c-0.8,0-1.5,0.7-1.5,1.5l0,9.4"/>
	<path class="st2" d="M1390,256.8c-0.8,0-1.5,0.7-1.5,1.6l0,10.1h3l0-10.1C1391.5,257.5,1390.8,256.8,1390,256.8z"/>
	<circle class="st2" cx="1380.5" cy="228.5" r="16"/>
	<g>
		<rect x="1337" y="382" class="st1" width="90" height="15"/>
		<rect x="1334.5" y="378.5" class="st2" width="90" height="15"/>
	</g>
</g>
<line class="st2" x1="1282" y1="288.5" x2="1352" y2="288.5"/>
<line class="st2" x1="1257" y1="288.5" x2="1325" y2="288.5"/>
<g>
	<rect x="1269" y="273" class="st0" width="20" height="12"/>
	<rect x="1306" y="155" class="st0" width="17" height="133"/>
	<rect x="1261.5" y="131.5" class="st2" width="42" height="157"/>
	<rect x="1303.5" y="156.5" class="st0" width="17" height="132"/>
	<line class="st2" x1="1292.5" y1="276" x2="1292.5" y2="288"/>
	<line class="st2" x1="1270" y1="276.5" x2="1295" y2="276.5"/>
	<line class="st2" x1="1272.5" y1="288" x2="1272.5" y2="276"/>
	<line class="st2" x1="1282.5" y1="276" x2="1282.5" y2="288"/>
	<rect x="1268.5" y="226.5" class="st2" width="7" height="7"/>
	<rect x="1279.5" y="226.5" class="st2" width="7" height="7"/>
	<rect x="1289.5" y="226.5" class="st2" width="7" height="7"/>
	<rect x="1268.5" y="238.5" class="st2" width="7" height="7"/>
	<rect x="1279.5" y="238.5" class="st2" width="7" height="7"/>
	<rect x="1289.5" y="238.5" class="st2" width="7" height="7"/>
	<rect x="1268.5" y="250.5" class="st2" width="7" height="7"/>
	<rect x="1279.5" y="250.5" class="st2" width="7" height="7"/>
	<rect x="1289.5" y="250.5" class="st2" width="7" height="7"/>
	<rect x="1268.5" y="262.5" class="st2" width="7" height="7"/>
	<rect x="1279.5" y="262.5" class="st2" width="7" height="7"/>
	<rect x="1289.5" y="262.5" class="st2" width="7" height="7"/>
	<rect x="1268.5" y="178.5" class="st2" width="7" height="7"/>
	<rect x="1279.5" y="178.5" class="st2" width="7" height="7"/>
	<rect x="1289.5" y="178.5" class="st2" width="7" height="7"/>
	<rect x="1268.5" y="190.5" class="st2" width="7" height="7"/>
	<rect x="1279.5" y="190.5" class="st2" width="7" height="7"/>
	<rect x="1289.5" y="190.5" class="st2" width="7" height="7"/>
	<rect x="1268.5" y="202.5" class="st2" width="7" height="7"/>
	<rect x="1279.5" y="202.5" class="st2" width="7" height="7"/>
	<rect x="1289.5" y="202.5" class="st2" width="7" height="7"/>
	<rect x="1268.5" y="214.5" class="st2" width="7" height="7"/>
	<rect x="1279.5" y="214.5" class="st2" width="7" height="7"/>
	<rect x="1289.5" y="214.5" class="st2" width="7" height="7"/>
	<rect x="1268.5" y="142.5" class="st2" width="7" height="7"/>
	<rect x="1279.5" y="142.5" class="st2" width="7" height="7"/>
	<rect x="1289.5" y="142.5" class="st2" width="7" height="7"/>
	<rect x="1268.5" y="154.5" class="st2" width="7" height="7"/>
	<rect x="1279.5" y="154.5" class="st2" width="7" height="7"/>
	<rect x="1289.5" y="154.5" class="st2" width="7" height="7"/>
	<rect x="1268.5" y="166.5" class="st2" width="7" height="7"/>
	<rect x="1279.5" y="166.5" class="st2" width="7" height="7"/>
	<rect x="1289.5" y="166.5" class="st2" width="7" height="7"/>
	<g>
		<rect x="1308.5" y="250.5" class="st2" width="7" height="7"/>
		<rect x="1308.5" y="262.5" class="st2" width="7" height="7"/>
		<rect x="1308.5" y="274.5" class="st2" width="7" height="7"/>
		<rect x="1308.5" y="202.5" class="st2" width="7" height="7"/>
		<rect x="1308.5" y="214.5" class="st2" width="7" height="7"/>
		<rect x="1308.5" y="226.5" class="st2" width="7" height="7"/>
		<rect x="1308.5" y="238.5" class="st2" width="7" height="7"/>
		<rect x="1308.5" y="166.5" class="st2" width="7" height="7"/>
		<rect x="1308.5" y="178.5" class="st2" width="7" height="7"/>
		<rect x="1308.5" y="190.5" class="st2" width="7" height="7"/>
	</g>
</g>
<g>
	<g>
		<circle class="st1" cx="1474.6" cy="167.2" r="6.5"/>
		<circle class="st1" cx="1479.4" cy="204.3" r="6.5"/>
		<circle class="st1" cx="1518.2" cy="183.4" r="6.5"/>
		<circle class="st1" cx="1440.7" cy="183.4" r="6.5"/>
		<circle class="st1" cx="1474.6" cy="123.7" r="6.5"/>
		<circle class="st1" cx="1513.3" cy="144.7" r="6.5"/>
		<circle class="st1" cx="1435.9" cy="144.7" r="6.5"/>
	</g>
	<g>
		<line class="st2" x1="1439.5" y1="180" x2="1439.5" y2="147"/>
		<line class="st2" x1="1471.7" y1="122.4" x2="1444.7" y2="138.2"/>
		<line class="st2" x1="1516.5" y1="180" x2="1516.5" y2="147"/>
		<line class="st2" x1="1471.7" y1="205.6" x2="1444.7" y2="189.8"/>
		<line class="st2" x1="1511" y1="189.8" x2="1484" y2="205.6"/>
		<line class="st2" x1="1511" y1="138.2" x2="1484" y2="122.4"/>
		<circle class="st2" cx="1477.8" cy="120.5" r="6.5"/>
		<circle class="st2" cx="1477.8" cy="207.6" r="6.5"/>
		<circle class="st2" cx="1516.5" cy="186.6" r="6.5"/>
		<circle class="st2" cx="1516.5" cy="141.4" r="6.5"/>
		<circle class="st2" cx="1439.1" cy="141.4" r="6.5"/>
		<circle class="st2" cx="1439.1" cy="186.6" r="6.5"/>
		<line class="st2" x1="1477.5" y1="170" x2="1477.5" y2="201"/>
		<line class="st2" x1="1477.5" y1="157" x2="1477.5" y2="127"/>
		<line class="st2" x1="1472.3" y1="160.8" x2="1444.7" y2="144.7"/>
		<line class="st2" x1="1511" y1="144.7" x2="1483.4" y2="160.8"/>
		<line class="st2" x1="1511" y1="183.4" x2="1483.4" y2="167.3"/>
		<line class="st2" x1="1472.3" y1="167.3" x2="1444.7" y2="183.4"/>
		<circle class="st2" cx="1477.8" cy="164" r="6.5"/>
		<line class="st2" x1="1474.6" y1="126" x2="1442.4" y2="181"/>
		<line class="st2" x1="1513.3" y1="181" x2="1481.1" y2="126"/>
		<line class="st2" x1="1510" y1="186.5" x2="1446" y2="186.5"/>
	</g>
</g>
<g>
	<circle class="st0" cx="1253" cy="152" r="32.5"/>
	<g>
		<defs>
			<circle id="SVGID_1_" cx="1252.5" cy="153.5" r="33.5"/>
		</defs>
		<clipPath id="SVGID_2_">
			<use xlink:href="#SVGID_1_"  style="overflow:visible;"/>
		</clipPath>
		<g class="st11">
			<g>
				<line id="_Path_" class="st10" x1="1231.5" y1="127.5" x2="1237.5" y2="127.5"/>
				<line id="_Path_3" class="st10" x1="1260.5" y1="127.5" x2="1261.5" y2="127.5"/>
				<line id="_Path_4" class="st10" x1="1240.5" y1="127.5" x2="1258.5" y2="127.6"/>
				<line id="_Path_16" class="st10" x1="1231.5" y1="134.5" x2="1237.5" y2="134.5"/>
				<line id="_Path_18" class="st10" x1="1271.5" y1="134.5" x2="1273.5" y2="134.5"/>
				<line id="_Path_19" class="st10" x1="1251.5" y1="134.5" x2="1269.5" y2="134.6"/>
				<line id="_Path_20" class="st10" x1="1240.5" y1="134.5" x2="1249.5" y2="134.6"/>
				<line id="_Path_26" class="st10" x1="1231.5" y1="140.5" x2="1237.5" y2="140.5"/>
				<line id="_Path_27" class="st10" x1="1255.5" y1="140.5" x2="1256.5" y2="140.5"/>
				<line id="_Path_29" class="st10" x1="1258.5" y1="140.5" x2="1268.5" y2="140.6"/>
				<line id="_Path_30" class="st10" x1="1240.5" y1="140.5" x2="1253.5" y2="140.6"/>
				<line id="_Path_31" class="st10" x1="1231.5" y1="147.5" x2="1237.5" y2="147.5"/>
				<line id="_Path_32" class="st10" x1="1255.5" y1="147.5" x2="1256.5" y2="147.5"/>
				<line id="_Path_33" class="st10" x1="1262.5" y1="147.5" x2="1263.5" y2="147.5"/>
				<line id="_Path_34" class="st10" x1="1258.5" y1="147.5" x2="1259.5" y2="147.5"/>
				<line id="_Path_35" class="st10" x1="1240.5" y1="147.5" x2="1253.5" y2="147.6"/>
				<line id="_Path_40" class="st10" x1="1231.5" y1="167.5" x2="1236.5" y2="167.5"/>
				<line id="_Path_41" class="st10" x1="1240.5" y1="167.5" x2="1256.5" y2="167.6"/>
				<line id="_Path_43" class="st10" x1="1258.5" y1="167.5" x2="1260.5" y2="167.5"/>
				<line id="_Path_44" class="st10" x1="1231.5" y1="173.5" x2="1236.5" y2="173.5"/>
				<line id="_Path_46" class="st10" x1="1261.5" y1="174.5" x2="1262.5" y2="174.5"/>
				<line id="_Path_47" class="st10" x1="1240.5" y1="174.5" x2="1257.5" y2="174.6"/>
				<line id="_Path_48" class="st10" x1="1231.5" y1="160.5" x2="1236.5" y2="160.5"/>
				<line id="_Path_49" class="st10" x1="1246.5" y1="160.5" x2="1248.5" y2="160.5"/>
				<line id="_Path_50" class="st10" x1="1250.5" y1="160.5" x2="1251.5" y2="160.5"/>
				<line id="_Path_52" class="st10" x1="1240.5" y1="160.5" x2="1244.5" y2="160.5"/>
				<line id="_Path_53" class="st10" x1="1253.5" y1="160.5" x2="1264.5" y2="160.6"/>
				<line id="_Path_54" class="st10" x1="1231.5" y1="154.5" x2="1236.5" y2="154.5"/>
				<line id="_Path_56" class="st10" x1="1251.5" y1="154.5" x2="1253.5" y2="154.5"/>
				<line id="_Path_57" class="st10" x1="1240.5" y1="154.5" x2="1250.5" y2="154.6"/>
				<line id="_Path_58" class="st10" x1="1254.5" y1="154.5" x2="1264.5" y2="154.6"/>
			</g>
		</g>
	</g>
</g>
<g>
	<circle class="st12" cx="1216.5" cy="146.5" r="13"/>
	<g>
		<path class="st2" d="M1208.9,146.7c0.1-4,3.4-7.2,7.5-7.1c2.3,0.1,4.4,1.2,5.7,3.1"/>
		<polyline class="st2" points="1223.2,138.8 1223.1,143.7 1218.2,143.6 		"/>
		<path class="st2" d="M1223.6,147.2c-0.1,4-3.4,7.2-7.5,7.1c-2.3-0.1-4.4-1.2-5.7-3.1"/>
		<polyline class="st2" points="1209.3,155.1 1209.4,150.2 1214.4,150.3 		"/>
	</g>
</g>
<g>
	<line class="st2" x1="1194" y1="268.5" x2="1167" y2="268.5"/>
	<polygon class="st2" points="1230.5,253.5 1230.5,202.5 1214,193 1197.5,202.5 1197.5,253.5 	"/>
	<polygon class="st2" points="1197.5,205.5 1197.5,203 1214,193.4 1230.5,203 1230.5,205.5 1235.5,205.5 1235.5,200.4 1214,187.7 
		1192.5,200.4 1192.5,205.5 	"/>
	<polyline class="st2" points="1230.5,254 1230.5,215.5 1250.5,215.5 1250.5,261.5 1241,261.5 	"/>
	<rect x="1202.5" y="238.5" class="st2" width="23" height="15"/>
	<rect x="1187.5" y="260.5" class="st2" width="53" height="8"/>
	<line class="st2" x1="1227" y1="238.5" x2="1202" y2="238.5"/>
	<line class="st2" x1="1227" y1="230.5" x2="1202" y2="230.5"/>
	<line class="st2" x1="1227" y1="215.5" x2="1202" y2="215.5"/>
	<line class="st2" x1="1231" y1="253.5" x2="1251" y2="253.5"/>
	<line class="st2" x1="1178" y1="253.5" x2="1198" y2="253.5"/>
	<line class="st2" x1="1214.5" y1="238" x2="1214.5" y2="253"/>
	<line class="st2" x1="1218.5" y1="245" x2="1218.5" y2="246"/>
	<line class="st2" x1="1210.5" y1="245" x2="1210.5" y2="246"/>
	<line class="st2" x1="1250.5" y1="210" x2="1250.5" y2="215"/>
	<polyline class="st2" points="1187,261.5 1177.5,261.5 1177.5,215.5 1197.5,215.5 1197.5,254 	"/>
	<rect x="1182.5" y="222.5" class="st2" width="10" height="8"/>
	<line class="st2" x1="1187.5" y1="231" x2="1187.5" y2="223"/>
	<rect x="1182.5" y="237.5" class="st2" width="10" height="8"/>
	<line class="st2" x1="1187.5" y1="246" x2="1187.5" y2="238"/>
	<rect x="1235.5" y="222.5" class="st2" width="10" height="8"/>
	<line class="st2" x1="1240.5" y1="231" x2="1240.5" y2="223"/>
	<rect x="1235.5" y="237.5" class="st2" width="10" height="8"/>
	<line class="st2" x1="1240.5" y1="246" x2="1240.5" y2="238"/>
	<line class="st2" x1="1214.5" y1="215" x2="1214.5" y2="208"/>
	<rect x="1202.5" y="207.5" class="st2" width="23" height="8"/>
	<line class="st2" x1="1214.5" y1="231" x2="1214.5" y2="223"/>
	<rect x="1202.5" y="222.5" class="st2" width="23" height="8"/>
	<line class="st2" x1="1177.5" y1="210" x2="1177.5" y2="215"/>
</g>
<path class="st9" d="M1114.7,76.6c0,0-20.7-17.8-62.9-24.7"/>
<g>
	<polygon class="st0" points="1490,293.5 1490,290.5 1503,290.5 1503,293.5 1505,293.5 1505,306.5 1487,306.5 1487,293.5 	"/>
	<polygon class="st0" points="1490,320 1490,318 1503,318 1503,320 1505,320 1505,330 1487,330 1487,320 	"/>
	<polygon class="st0" points="1490,268.5 1490,265.5 1503,265.5 1503,268.5 1505,268.5 1505,280.5 1487,280.5 1487,268.5 	"/>
	<polyline class="st2" points="1478.5,255 1478.5,329.5 1509.5,329.5 1509.5,255 	"/>
	<line class="st2" x1="1512" y1="255.5" x2="1476" y2="255.5"/>
	<path class="st2" d="M1509.5,255v-2.5c0-1.4-1.1-2.5-2.5-2.5l0,0l0,0c-1.4,0-2.5,1.1-2.5,2.5c0,0,0,0,0,0v2.5"/>
	<path class="st2" d="M1483.5,255v-2.5c0-1.4-1.1-2.5-2.5-2.5l0,0l0,0c-1.4,0-2.5,1.1-2.5,2.5c0,0,0,0,0,0v2.5"/>
	<polygon class="st2" points="1487.5,293.5 1487.5,290.5 1500.5,290.5 1500.5,293.5 1503.5,293.5 1503.5,306.5 1485.5,306.5 
		1485.5,293.5 	"/>
	<polygon class="st2" points="1487.5,319.5 1487.5,316.5 1500.5,316.5 1500.5,319.5 1503.5,319.5 1503.5,329.5 1485.5,329.5 
		1485.5,319.5 	"/>
	<polygon class="st2" points="1487.5,268.5 1487.5,265.5 1500.5,265.5 1500.5,268.5 1503.5,268.5 1503.5,280.5 1485.5,280.5 
		1485.5,268.5 	"/>
	<line class="st2" x1="1491.5" y1="317" x2="1491.5" y2="330"/>
	<line class="st2" x1="1496.5" y1="317" x2="1496.5" y2="330"/>
	<line class="st2" x1="1491.5" y1="291" x2="1491.5" y2="306"/>
	<line class="st2" x1="1496.5" y1="291" x2="1496.5" y2="306"/>
	<line class="st2" x1="1491.5" y1="265" x2="1491.5" y2="281"/>
	<line class="st2" x1="1496.5" y1="265" x2="1496.5" y2="281"/>
	<line class="st2" x1="1480" y1="311.5" x2="1477" y2="311.5"/>
	<line class="st2" x1="1480" y1="285.5" x2="1477" y2="285.5"/>
	<line class="st2" x1="1480" y1="260.5" x2="1477" y2="260.5"/>
	<path class="st2" d="M1441.8,292.5c4.7,3.3,9.7,6,15.1,7.9c14.1,4.9,21.9,0.3,21.9,0.3"/>
	<path class="st2" d="M1441.8,308.4c5.4-1.8,10.6-4.5,15.1-8c17.9-13.6,21.6-35,21.6-35"/>
	<polyline class="st2" points="1471.5,284 1471.5,301.8 1471.5,302.7 1471.5,330 	"/>
	<polyline class="st2" points="1463.5,295 1463.5,301.8 1463.5,302.2 1463.5,330 	"/>
	<polyline class="st2" points="1455.5,300 1455.5,301.3 1455.5,301.8 1455.5,330 	"/>
	<polyline class="st2" points="1447.5,297 1447.5,301.8 1447.5,305.8 1447.5,330 	"/>
	<line class="st2" x1="1511" y1="311.5" x2="1508" y2="311.5"/>
	<line class="st2" x1="1511" y1="285.5" x2="1508" y2="285.5"/>
	<line class="st2" x1="1511" y1="260.5" x2="1508" y2="260.5"/>
</g>
<g>
	<circle class="st0" cx="286" cy="253" r="46.5"/>
	<g>
		<circle class="st1" cx="274.3" cy="253.7" r="8.5"/>
		<circle class="st1" cx="296.9" cy="253.7" r="8.5"/>
		<path class="st2" d="M275.1,264c-1.2,0.8-2.1,2.1-2.3,3.6l-0.6,3.2c-0.3,1.8-1.3,3.4-2.7,4.5c-1.4,1.2-3.2,1.8-5.1,1.8
			c-4.2,0.1-7.8-3.2-7.9-7.5c0-0.5,0-0.9,0.1-1.4l4.4-23.6c0.7-3.6,3.8-6.1,7.4-6.1h34.5c3.6,0,6.7,2.6,7.4,6.1l4.4,23.6
			c0.6,4.2-2.2,8.1-6.4,8.8c-0.5,0.1-0.9,0.1-1.4,0.1c-1.9,0-3.6-0.6-5.1-1.8c-1.4-1.1-2.4-2.7-2.7-4.5l-0.6-3.2
			c-0.3-1.5-1.1-2.8-2.3-3.6"/>
		<line class="st2" x1="289" y1="263.5" x2="283" y2="263.5"/>
		<line class="st2" x1="282" y1="244.5" x2="284" y2="244.5"/>
		<line class="st2" x1="288" y1="244.5" x2="289" y2="244.5"/>
		<path class="st2" d="M296.5,259.9c0.9,0.3,1.8,0.5,2.8,0.5c4.9,0,9-4,9-8.9c0-4.9-4-9-8.9-9c-4.9,0-9,4-9,8.9
			c0,2.3,0.9,4.5,2.4,6.1"/>
		<circle class="st2" cx="299.3" cy="255.1" r="1.4"/>
		<circle class="st2" cx="299.3" cy="247.6" r="1.4"/>
		<circle class="st2" cx="295.5" cy="251.4" r="1.4"/>
		<circle class="st2" cx="303" cy="251.4" r="1.4"/>
		<path class="st2" d="M278.5,257.5c3.4-3.6,3.2-9.3-0.4-12.6c-3.6-3.4-9.3-3.2-12.6,0.4c-3.4,3.6-3.2,9.3,0.4,12.6
			c1.7,1.6,3.8,2.4,6.1,2.4c0.9,0,1.9-0.1,2.8-0.5"/>
		<polygon class="st2" points="277.5,249.5 273.5,249.4 273.5,246.5 270.5,246.5 270.5,249.5 266.5,249.5 266.5,252.5 270.5,252.5 
			270.5,256.5 273.5,256.5 273.5,252.5 277.5,252.5 		"/>
		<polyline class="st2" points="268.5,238 268.5,234.5 276.5,234.5 276.5,238 		"/>
		<polyline class="st2" points="294.5,238 294.5,234.5 302.5,234.5 302.5,238 		"/>
		<path class="st2" d="M287.5,238.5h-4v-1.9c0-1.1,0.9-1.9,2-1.9l0,0c1.1,0,2,0.8,2,1.9V238.5z"/>
		<circle class="st2" cx="292.7" cy="261.7" r="4.2"/>
		<circle class="st2" cx="278.6" cy="261.7" r="4.2"/>
		<path class="st2" d="M297,219.5h-25.9c-1.4,0-2.5,1.1-2.5,2.5l0,0c0,1.4,1.1,2.5,2.5,2.5H301c1.4,0,2.5,1.1,2.5,2.5l0,0
			c0,1.4-1.1,2.5-2.5,2.5h-11.7c-2.1,0-3.8,1.7-3.8,3.8c0,0,0,0,0,0v1.7"/>
	</g>
</g>
<g>
	<path class="st4" d="M199.2,388.7c0.1,0,0.2,0.1,0.2,0.3c0,0,0,0.1,0,0.1l-0.2,0.5c0,0.1-0.2,0.2-0.3,0.2c-0.1,0-0.1,0-0.1,0
		l-1.9-0.7l0.1,1.7v0c0,0.1,0,0.1-0.1,0.2c-0.1,0-0.1,0.1-0.2,0.1H196c-0.1,0-0.2,0-0.2-0.1c-0.1-0.1-0.1-0.1-0.1-0.2l0.1-1.7
		l-1.8,0.7c-0.1,0-0.1,0-0.2,0c-0.1,0-0.2-0.1-0.2-0.1l-0.2-0.5c0-0.1,0-0.1,0-0.2c0-0.1,0.1-0.2,0.2-0.2l2.8-0.8L199.2,388.7z"/>
	<path class="st4" d="M197.2,384.1c0.1,0.1,0.1,0.1,0.1,0.2l-0.1,1.7l1.9-0.7c0.1,0,0.1,0,0.2,0c0.1,0,0.2,0.1,0.2,0.2l0.2,0.5
		c0,0,0,0.1,0,0.1c0,0.1-0.1,0.2-0.2,0.3l-2.8,0.8l-2.8-0.8c-0.1,0-0.2-0.1-0.2-0.2c0-0.1,0-0.1,0-0.1l0.2-0.5
		c0-0.1,0.1-0.1,0.2-0.1c0.1,0,0.1,0,0.2,0l1.8,0.7l-0.1-1.7v0c0-0.1,0-0.1,0.1-0.2c0.1,0,0.1-0.1,0.2-0.1h0.7
		C197,384,197.1,384,197.2,384.1z"/>
</g>
<g>
	<line class="st2" x1="1421" y1="31.5" x2="1430" y2="31.5"/>
	<line class="st2" x1="1425.5" y1="36" x2="1425.5" y2="27"/>
</g>
<path class="st4" d="M53.6,105.3c0.2,0,0.3,0.2,0.3,0.4c0,0.1,0,0.2,0,0.2l-0.4,0.8c-0.1,0.2-0.3,0.3-0.4,0.3c-0.1,0-0.2,0-0.2-0.1
	l-3.1-1.1l0.2,2.7v0.1c0,0.1,0,0.2-0.1,0.3c-0.1,0.1-0.2,0.1-0.3,0.1h-1.1c-0.1,0-0.3,0-0.3-0.1c-0.1-0.1-0.1-0.2-0.1-0.3l0.2-2.7
	l-3,1.1c-0.1,0-0.2,0.1-0.3,0.1c-0.2,0-0.3-0.1-0.4-0.2l-0.4-0.8c0-0.1-0.1-0.2-0.1-0.3c0-0.2,0.1-0.3,0.3-0.4l4.6-1.3L53.6,105.3z
	 M49.9,99.1c0.1,0.1,0.1,0.2,0.1,0.3l-0.2,2.7l3.1-1.1c0.1,0,0.2-0.1,0.3-0.1c0.2,0,0.3,0.1,0.4,0.3l0.4,0.8c0,0.1,0,0.2,0,0.2
	c0,0.2-0.1,0.4-0.3,0.4l-4.7,1.2l-4.6-1.3c-0.2,0-0.3-0.2-0.3-0.4c0-0.1,0-0.2,0.1-0.2l0.4-0.8c0.1-0.1,0.2-0.2,0.4-0.2
	c0.1,0,0.2,0,0.3,0.1l3,1.1L48,99.5v-0.1c0-0.1,0-0.2,0.1-0.3c0.1-0.1,0.2-0.1,0.3-0.1h1.1C49.7,99,49.8,99,49.9,99.1z"/>
</svg>
